<svg width="487" height="464" viewBox="0 0 487 464" fill="none" xmlns="http://www.w3.org/2000/svg">
<path d="M158.51 342.61L317.03 251.09L250.86 212.89L158.76 266.07L66.41 212.75L0 251.09L158.51 342.61Z" fill="url(#paint0_linear_27_1102)"/>
<path d="M308.01 256.3L317.03 251.09L250.86 212.89L241.84 218.1L308.01 256.3Z" fill="#5631E8"/>
<path d="M9.01001 256.3L75.42 217.96L66.41 212.75L0 251.09L9.01001 256.3Z" fill="#5631E8"/>
<path d="M291.64 265.75L308.01 256.3L241.84 218.1L225.47 227.55L291.64 265.75Z" fill="#040919"/>
<path d="M25.39 265.75L91.8 227.41L75.42 217.96L9.01001 256.3L25.39 265.75Z" fill="#040919"/>
<path d="M9.01001 256.3L75.42 217.96L66.41 212.75L0 251.09L9.01001 256.3Z" fill="#040919"/>
<path d="M158.32 260.88V272.85C158.32 274.11 159.13 275.37 160.78 276.33C164.07 278.25 169.43 278.25 172.75 276.33C174.41 275.37 175.24 274.11 175.25 272.85V253.12" stroke="#925FFF" stroke-linecap="round" stroke-linejoin="round"/>
<path d="M231.29 224.19V232.42C231.29 233.68 232.1 234.94 233.75 235.9C237.04 237.82 242.4 237.82 245.72 235.9C247.38 234.94 248.21 233.68 248.22 232.42V214.42" stroke="#925FFF" stroke-linecap="round" stroke-linejoin="round"/>
<path d="M128.39 248.54V275.14C128.39 276.4 129.2 277.66 130.85 278.62C134.14 280.54 139.5 280.54 142.82 278.62C144.48 277.66 145.31 276.4 145.32 275.14V258.31" stroke="#925FFF" stroke-linecap="round" stroke-linejoin="round"/>
<path d="M66.02 212.53V234.86C66.02 236.12 66.83 237.38 68.48 238.34C71.77 240.26 77.13 240.26 80.45 238.34C82.11 237.38 82.94 236.12 82.95 234.86V222.3" stroke="#925FFF" stroke-linecap="round" stroke-linejoin="round"/>
<path d="M172.71 281.86C169.39 279.94 164.04 279.94 160.75 281.86C157.46 283.78 157.47 286.9 160.79 288.82C164.11 290.74 169.46 290.74 172.76 288.82C176.05 286.9 176.04 283.78 172.72 281.86H172.71Z" stroke="#925FFF" stroke-linecap="round" stroke-linejoin="round"/>
<path d="M175.21 285.34V303.46C175.21 304.71 174.39 305.97 172.75 306.92C169.46 308.84 164.1 308.84 160.78 306.92C159.12 305.96 158.28 304.69 158.28 303.42V285.33" stroke="#925FFF" stroke-linecap="round" stroke-linejoin="round"/>
<path d="M142.82 296.84C139.5 294.92 134.15 294.92 130.86 296.84C127.57 298.76 127.58 301.88 130.9 303.8C134.22 305.72 139.57 305.72 142.87 303.8C146.16 301.88 146.15 298.76 142.83 296.84H142.82Z" stroke="#925FFF" stroke-linecap="round" stroke-linejoin="round"/>
<path d="M128.39 324.22V300.32" stroke="#925FFF" stroke-linecap="round" stroke-linejoin="round"/>
<path d="M145.32 300.32V334.26" stroke="#925FFF" stroke-linecap="round" stroke-linejoin="round"/>
<path d="M245.71 243.46C242.39 241.54 237.04 241.54 233.75 243.46C230.46 245.38 230.47 248.5 233.79 250.42C237.11 252.34 242.46 252.34 245.76 250.42C249.05 248.5 249.04 245.38 245.72 243.46H245.71Z" stroke="#925FFF" stroke-linecap="round" stroke-linejoin="round"/>
<path d="M248.21 246.94V258.06C248.21 259.31 247.39 260.57 245.75 261.52C242.46 263.44 237.1 263.44 233.78 261.52C232.12 260.56 231.28 259.29 231.28 258.02V246.93" stroke="#925FFF" stroke-linecap="round" stroke-linejoin="round"/>
<path d="M158.76 69.71L0.47998 161.09L158.76 252.47L317.02 161.09L158.76 69.71Z" fill="url(#paint1_linear_27_1102)"/>
<g opacity="0.25">
<path d="M94.42 156.45C94.8066 156.45 95.12 156.137 95.12 155.75C95.12 155.363 94.8066 155.05 94.42 155.05C94.0334 155.05 93.72 155.363 93.72 155.75C93.72 156.137 94.0334 156.45 94.42 156.45Z" fill="#040919"/>
<path d="M102.47 161.09C102.857 161.09 103.17 160.777 103.17 160.39C103.17 160.003 102.857 159.69 102.47 159.69C102.083 159.69 101.77 160.003 101.77 160.39C101.77 160.777 102.083 161.09 102.47 161.09Z" fill="#040919"/>
<path d="M94.42 165.73C94.8066 165.73 95.12 165.417 95.12 165.03C95.12 164.643 94.8066 164.33 94.42 164.33C94.0334 164.33 93.72 164.643 93.72 165.03C93.72 165.417 94.0334 165.73 94.42 165.73Z" fill="#040919"/>
<path d="M110.51 165.73C110.897 165.73 111.21 165.417 111.21 165.03C111.21 164.643 110.897 164.33 110.51 164.33C110.123 164.33 109.81 164.643 109.81 165.03C109.81 165.417 110.123 165.73 110.51 165.73Z" fill="#040919"/>
<path d="M102.47 170.38C102.857 170.38 103.17 170.067 103.17 169.68C103.17 169.293 102.857 168.98 102.47 168.98C102.083 168.98 101.77 169.293 101.77 169.68C101.77 170.067 102.083 170.38 102.47 170.38Z" fill="#040919"/>
<path d="M94.42 175.02C94.8066 175.02 95.12 174.707 95.12 174.32C95.12 173.933 94.8066 173.62 94.42 173.62C94.0334 173.62 93.72 173.933 93.72 174.32C93.72 174.707 94.0334 175.02 94.42 175.02Z" fill="#040919"/>
<path d="M118.55 170.38C118.937 170.38 119.25 170.067 119.25 169.68C119.25 169.293 118.937 168.98 118.55 168.98C118.163 168.98 117.85 169.293 117.85 169.68C117.85 170.067 118.163 170.38 118.55 170.38Z" fill="#040919"/>
<path d="M110.51 175.02C110.897 175.02 111.21 174.707 111.21 174.32C111.21 173.933 110.897 173.62 110.51 173.62C110.123 173.62 109.81 173.933 109.81 174.32C109.81 174.707 110.123 175.02 110.51 175.02Z" fill="#040919"/>
<path d="M102.47 179.66C102.857 179.66 103.17 179.347 103.17 178.96C103.17 178.573 102.857 178.26 102.47 178.26C102.083 178.26 101.77 178.573 101.77 178.96C101.77 179.347 102.083 179.66 102.47 179.66Z" fill="#040919"/>
<path d="M94.42 184.31C94.8066 184.31 95.12 183.997 95.12 183.61C95.12 183.223 94.8066 182.91 94.42 182.91C94.0334 182.91 93.72 183.223 93.72 183.61C93.72 183.997 94.0334 184.31 94.42 184.31Z" fill="#040919"/>
<path d="M118.55 179.66C118.937 179.66 119.25 179.347 119.25 178.96C119.25 178.573 118.937 178.26 118.55 178.26C118.163 178.26 117.85 178.573 117.85 178.96C117.85 179.347 118.163 179.66 118.55 179.66Z" fill="#040919"/>
<path d="M110.51 184.31C110.897 184.31 111.21 183.997 111.21 183.61C111.21 183.223 110.897 182.91 110.51 182.91C110.123 182.91 109.81 183.223 109.81 183.61C109.81 183.997 110.123 184.31 110.51 184.31Z" fill="#040919"/>
<path d="M126.59 175.02C126.976 175.02 127.29 174.707 127.29 174.32C127.29 173.933 126.976 173.62 126.59 173.62C126.203 173.62 125.89 173.933 125.89 174.32C125.89 174.707 126.203 175.02 126.59 175.02Z" fill="#040919"/>
<path d="M102.47 188.95C102.857 188.95 103.17 188.637 103.17 188.25C103.17 187.863 102.857 187.55 102.47 187.55C102.083 187.55 101.77 187.863 101.77 188.25C101.77 188.637 102.083 188.95 102.47 188.95Z" fill="#040919"/>
<path d="M94.42 193.59C94.8066 193.59 95.12 193.277 95.12 192.89C95.12 192.503 94.8066 192.19 94.42 192.19C94.0334 192.19 93.72 192.503 93.72 192.89C93.72 193.277 94.0334 193.59 94.42 193.59Z" fill="#040919"/>
<path d="M86.3799 161.09C86.7665 161.09 87.0798 160.777 87.0798 160.39C87.0798 160.003 86.7665 159.69 86.3799 159.69C85.9933 159.69 85.6799 160.003 85.6799 160.39C85.6799 160.777 85.9933 161.09 86.3799 161.09Z" fill="#040919"/>
<path d="M110.51 147.16C110.897 147.16 111.21 146.847 111.21 146.46C111.21 146.073 110.897 145.76 110.51 145.76C110.123 145.76 109.81 146.073 109.81 146.46C109.81 146.847 110.123 147.16 110.51 147.16Z" fill="#040919"/>
<path d="M118.55 151.81C118.937 151.81 119.25 151.497 119.25 151.11C119.25 150.723 118.937 150.41 118.55 150.41C118.163 150.41 117.85 150.723 117.85 151.11C117.85 151.497 118.163 151.81 118.55 151.81Z" fill="#040919"/>
<path d="M110.51 156.45C110.897 156.45 111.21 156.137 111.21 155.75C111.21 155.363 110.897 155.05 110.51 155.05C110.123 155.05 109.81 155.363 109.81 155.75C109.81 156.137 110.123 156.45 110.51 156.45Z" fill="#040919"/>
<path d="M126.59 156.45C126.976 156.45 127.29 156.137 127.29 155.75C127.29 155.363 126.976 155.05 126.59 155.05C126.203 155.05 125.89 155.363 125.89 155.75C125.89 156.137 126.203 156.45 126.59 156.45Z" fill="#040919"/>
<path d="M118.55 161.09C118.937 161.09 119.25 160.777 119.25 160.39C119.25 160.003 118.937 159.69 118.55 159.69C118.163 159.69 117.85 160.003 117.85 160.39C117.85 160.777 118.163 161.09 118.55 161.09Z" fill="#040919"/>
<path d="M134.63 161.09C135.016 161.09 135.33 160.777 135.33 160.39C135.33 160.003 135.016 159.69 134.63 159.69C134.243 159.69 133.93 160.003 133.93 160.39C133.93 160.777 134.243 161.09 134.63 161.09Z" fill="#040919"/>
<path d="M126.59 165.73C126.976 165.73 127.29 165.417 127.29 165.03C127.29 164.643 126.976 164.33 126.59 164.33C126.203 164.33 125.89 164.643 125.89 165.03C125.89 165.417 126.203 165.73 126.59 165.73Z" fill="#040919"/>
<path d="M134.63 170.38C135.016 170.38 135.33 170.067 135.33 169.68C135.33 169.293 135.016 168.98 134.63 168.98C134.243 168.98 133.93 169.293 133.93 169.68C133.93 170.067 134.243 170.38 134.63 170.38Z" fill="#040919"/>
<path d="M142.67 165.73C143.057 165.73 143.37 165.417 143.37 165.03C143.37 164.643 143.057 164.33 142.67 164.33C142.283 164.33 141.97 164.643 141.97 165.03C141.97 165.417 142.283 165.73 142.67 165.73Z" fill="#040919"/>
<path d="M102.47 151.81C102.857 151.81 103.17 151.497 103.17 151.11C103.17 150.723 102.857 150.41 102.47 150.41C102.083 150.41 101.77 150.723 101.77 151.11C101.77 151.497 102.083 151.81 102.47 151.81Z" fill="#040919"/>
<path d="M126.59 147.16C126.976 147.16 127.29 146.847 127.29 146.46C127.29 146.073 126.976 145.76 126.59 145.76C126.203 145.76 125.89 146.073 125.89 146.46C125.89 146.847 126.203 147.16 126.59 147.16Z" fill="#040919"/>
<path d="M134.63 151.81C135.016 151.81 135.33 151.497 135.33 151.11C135.33 150.723 135.016 150.41 134.63 150.41C134.243 150.41 133.93 150.723 133.93 151.11C133.93 151.497 134.243 151.81 134.63 151.81Z" fill="#040919"/>
<path d="M142.67 156.45C143.057 156.45 143.37 156.137 143.37 155.75C143.37 155.363 143.057 155.05 142.67 155.05C142.283 155.05 141.97 155.363 141.97 155.75C141.97 156.137 142.283 156.45 142.67 156.45Z" fill="#040919"/>
<path d="M150.71 161.09C151.097 161.09 151.41 160.777 151.41 160.39C151.41 160.003 151.097 159.69 150.71 159.69C150.323 159.69 150.01 160.003 150.01 160.39C150.01 160.777 150.323 161.09 150.71 161.09Z" fill="#040919"/>
<path d="M126.59 184.31C126.976 184.31 127.29 183.997 127.29 183.61C127.29 183.223 126.976 182.91 126.59 182.91C126.203 182.91 125.89 183.223 125.89 183.61C125.89 183.997 126.203 184.31 126.59 184.31Z" fill="#040919"/>
<path d="M118.55 188.95C118.937 188.95 119.25 188.637 119.25 188.25C119.25 187.863 118.937 187.55 118.55 187.55C118.163 187.55 117.85 187.863 117.85 188.25C117.85 188.637 118.163 188.95 118.55 188.95Z" fill="#040919"/>
<path d="M134.63 179.66C135.016 179.66 135.33 179.347 135.33 178.96C135.33 178.573 135.016 178.26 134.63 178.26C134.243 178.26 133.93 178.573 133.93 178.96C133.93 179.347 134.243 179.66 134.63 179.66Z" fill="#040919"/>
<path d="M110.51 193.59C110.897 193.59 111.21 193.277 111.21 192.89C111.21 192.503 110.897 192.19 110.51 192.19C110.123 192.19 109.81 192.503 109.81 192.89C109.81 193.277 110.123 193.59 110.51 193.59Z" fill="#040919"/>
<path d="M102.47 198.23C102.857 198.23 103.17 197.917 103.17 197.53C103.17 197.143 102.857 196.83 102.47 196.83C102.083 196.83 101.77 197.143 101.77 197.53C101.77 197.917 102.083 198.23 102.47 198.23Z" fill="#040919"/>
<path d="M142.67 175.02C143.057 175.02 143.37 174.707 143.37 174.32C143.37 173.933 143.057 173.62 142.67 173.62C142.283 173.62 141.97 173.933 141.97 174.32C141.97 174.707 142.283 175.02 142.67 175.02Z" fill="#040919"/>
<path d="M150.71 170.38C151.097 170.38 151.41 170.067 151.41 169.68C151.41 169.293 151.097 168.98 150.71 168.98C150.323 168.98 150.01 169.293 150.01 169.68C150.01 170.067 150.323 170.38 150.71 170.38Z" fill="#040919"/>
<path d="M158.76 165.73C159.147 165.73 159.46 165.417 159.46 165.03C159.46 164.643 159.147 164.33 158.76 164.33C158.373 164.33 158.06 164.643 158.06 165.03C158.06 165.417 158.373 165.73 158.76 165.73Z" fill="#040919"/>
<path d="M134.63 188.95C135.016 188.95 135.33 188.637 135.33 188.25C135.33 187.863 135.016 187.55 134.63 187.55C134.243 187.55 133.93 187.863 133.93 188.25C133.93 188.637 134.243 188.95 134.63 188.95Z" fill="#040919"/>
<path d="M126.59 193.59C126.976 193.59 127.29 193.277 127.29 192.89C127.29 192.503 126.976 192.19 126.59 192.19C126.203 192.19 125.89 192.503 125.89 192.89C125.89 193.277 126.203 193.59 126.59 193.59Z" fill="#040919"/>
<path d="M142.67 184.31C143.057 184.31 143.37 183.997 143.37 183.61C143.37 183.223 143.057 182.91 142.67 182.91C142.283 182.91 141.97 183.223 141.97 183.61C141.97 183.997 142.283 184.31 142.67 184.31Z" fill="#040919"/>
<path d="M118.55 198.23C118.937 198.23 119.25 197.917 119.25 197.53C119.25 197.143 118.937 196.83 118.55 196.83C118.163 196.83 117.85 197.143 117.85 197.53C117.85 197.917 118.163 198.23 118.55 198.23Z" fill="#040919"/>
<path d="M110.51 202.88C110.897 202.88 111.21 202.567 111.21 202.18C111.21 201.793 110.897 201.48 110.51 201.48C110.123 201.48 109.81 201.793 109.81 202.18C109.81 202.567 110.123 202.88 110.51 202.88Z" fill="#040919"/>
<path d="M150.71 179.66C151.097 179.66 151.41 179.347 151.41 178.96C151.41 178.573 151.097 178.26 150.71 178.26C150.323 178.26 150.01 178.573 150.01 178.96C150.01 179.347 150.323 179.66 150.71 179.66Z" fill="#040919"/>
<path d="M158.76 175.02C159.147 175.02 159.46 174.707 159.46 174.32C159.46 173.933 159.147 173.62 158.76 173.62C158.373 173.62 158.06 173.933 158.06 174.32C158.06 174.707 158.373 175.02 158.76 175.02Z" fill="#040919"/>
<path d="M166.8 170.38C167.187 170.38 167.5 170.067 167.5 169.68C167.5 169.293 167.187 168.98 166.8 168.98C166.413 168.98 166.1 169.293 166.1 169.68C166.1 170.067 166.413 170.38 166.8 170.38Z" fill="#040919"/>
<path d="M142.67 193.59C143.057 193.59 143.37 193.277 143.37 192.89C143.37 192.503 143.057 192.19 142.67 192.19C142.283 192.19 141.97 192.503 141.97 192.89C141.97 193.277 142.283 193.59 142.67 193.59Z" fill="#040919"/>
<path d="M134.63 198.23C135.016 198.23 135.33 197.917 135.33 197.53C135.33 197.143 135.016 196.83 134.63 196.83C134.243 196.83 133.93 197.143 133.93 197.53C133.93 197.917 134.243 198.23 134.63 198.23Z" fill="#040919"/>
<path d="M150.71 188.95C151.097 188.95 151.41 188.637 151.41 188.25C151.41 187.863 151.097 187.55 150.71 187.55C150.323 187.55 150.01 187.863 150.01 188.25C150.01 188.637 150.323 188.95 150.71 188.95Z" fill="#040919"/>
<path d="M126.59 202.88C126.976 202.88 127.29 202.567 127.29 202.18C127.29 201.793 126.976 201.48 126.59 201.48C126.203 201.48 125.89 201.793 125.89 202.18C125.89 202.567 126.203 202.88 126.59 202.88Z" fill="#040919"/>
<path d="M118.55 207.52C118.937 207.52 119.25 207.207 119.25 206.82C119.25 206.433 118.937 206.12 118.55 206.12C118.163 206.12 117.85 206.433 117.85 206.82C117.85 207.207 118.163 207.52 118.55 207.52Z" fill="#040919"/>
<path d="M158.76 184.31C159.147 184.31 159.46 183.997 159.46 183.61C159.46 183.223 159.147 182.91 158.76 182.91C158.373 182.91 158.06 183.223 158.06 183.61C158.06 183.997 158.373 184.31 158.76 184.31Z" fill="#040919"/>
<path d="M166.8 179.66C167.187 179.66 167.5 179.347 167.5 178.96C167.5 178.573 167.187 178.26 166.8 178.26C166.413 178.26 166.1 178.573 166.1 178.96C166.1 179.347 166.413 179.66 166.8 179.66Z" fill="#040919"/>
<path d="M174.84 175.02C175.226 175.02 175.54 174.707 175.54 174.32C175.54 173.933 175.226 173.62 174.84 173.62C174.453 173.62 174.14 173.933 174.14 174.32C174.14 174.707 174.453 175.02 174.84 175.02Z" fill="#040919"/>
<path d="M150.71 198.23C151.097 198.23 151.41 197.917 151.41 197.53C151.41 197.143 151.097 196.83 150.71 196.83C150.323 196.83 150.01 197.143 150.01 197.53C150.01 197.917 150.323 198.23 150.71 198.23Z" fill="#040919"/>
<path d="M142.67 202.88C143.057 202.88 143.37 202.567 143.37 202.18C143.37 201.793 143.057 201.48 142.67 201.48C142.283 201.48 141.97 201.793 141.97 202.18C141.97 202.567 142.283 202.88 142.67 202.88Z" fill="#040919"/>
<path d="M158.76 193.59C159.147 193.59 159.46 193.277 159.46 192.89C159.46 192.503 159.147 192.19 158.76 192.19C158.373 192.19 158.06 192.503 158.06 192.89C158.06 193.277 158.373 193.59 158.76 193.59Z" fill="#040919"/>
<path d="M134.63 207.52C135.016 207.52 135.33 207.207 135.33 206.82C135.33 206.433 135.016 206.12 134.63 206.12C134.243 206.12 133.93 206.433 133.93 206.82C133.93 207.207 134.243 207.52 134.63 207.52Z" fill="#040919"/>
<path d="M126.59 212.16C126.976 212.16 127.29 211.847 127.29 211.46C127.29 211.073 126.976 210.76 126.59 210.76C126.203 210.76 125.89 211.073 125.89 211.46C125.89 211.847 126.203 212.16 126.59 212.16Z" fill="#040919"/>
<path d="M166.8 188.95C167.187 188.95 167.5 188.637 167.5 188.25C167.5 187.863 167.187 187.55 166.8 187.55C166.413 187.55 166.1 187.863 166.1 188.25C166.1 188.637 166.413 188.95 166.8 188.95Z" fill="#040919"/>
<path d="M174.84 184.31C175.226 184.31 175.54 183.997 175.54 183.61C175.54 183.223 175.226 182.91 174.84 182.91C174.453 182.91 174.14 183.223 174.14 183.61C174.14 183.997 174.453 184.31 174.84 184.31Z" fill="#040919"/>
<path d="M182.88 179.66C183.266 179.66 183.58 179.347 183.58 178.96C183.58 178.573 183.266 178.26 182.88 178.26C182.493 178.26 182.18 178.573 182.18 178.96C182.18 179.347 182.493 179.66 182.88 179.66Z" fill="#040919"/>
<path d="M158.76 202.88C159.147 202.88 159.46 202.567 159.46 202.18C159.46 201.793 159.147 201.48 158.76 201.48C158.373 201.48 158.06 201.793 158.06 202.18C158.06 202.567 158.373 202.88 158.76 202.88Z" fill="#040919"/>
<path d="M150.71 207.52C151.097 207.52 151.41 207.207 151.41 206.82C151.41 206.433 151.097 206.12 150.71 206.12C150.323 206.12 150.01 206.433 150.01 206.82C150.01 207.207 150.323 207.52 150.71 207.52Z" fill="#040919"/>
<path d="M166.8 198.23C167.187 198.23 167.5 197.917 167.5 197.53C167.5 197.143 167.187 196.83 166.8 196.83C166.413 196.83 166.1 197.143 166.1 197.53C166.1 197.917 166.413 198.23 166.8 198.23Z" fill="#040919"/>
<path d="M142.67 212.16C143.057 212.16 143.37 211.847 143.37 211.46C143.37 211.073 143.057 210.76 142.67 210.76C142.283 210.76 141.97 211.073 141.97 211.46C141.97 211.847 142.283 212.16 142.67 212.16Z" fill="#040919"/>
<path d="M134.63 216.8C135.016 216.8 135.33 216.487 135.33 216.1C135.33 215.713 135.016 215.4 134.63 215.4C134.243 215.4 133.93 215.713 133.93 216.1C133.93 216.487 134.243 216.8 134.63 216.8Z" fill="#040919"/>
<path d="M174.84 193.59C175.226 193.59 175.54 193.277 175.54 192.89C175.54 192.503 175.226 192.19 174.84 192.19C174.453 192.19 174.14 192.503 174.14 192.89C174.14 193.277 174.453 193.59 174.84 193.59Z" fill="#040919"/>
<path d="M182.88 188.95C183.266 188.95 183.58 188.637 183.58 188.25C183.58 187.863 183.266 187.55 182.88 187.55C182.493 187.55 182.18 187.863 182.18 188.25C182.18 188.637 182.493 188.95 182.88 188.95Z" fill="#040919"/>
<path d="M190.92 184.31C191.307 184.31 191.62 183.997 191.62 183.61C191.62 183.223 191.307 182.91 190.92 182.91C190.533 182.91 190.22 183.223 190.22 183.61C190.22 183.997 190.533 184.31 190.92 184.31Z" fill="#040919"/>
<path d="M166.8 207.52C167.187 207.52 167.5 207.207 167.5 206.82C167.5 206.433 167.187 206.12 166.8 206.12C166.413 206.12 166.1 206.433 166.1 206.82C166.1 207.207 166.413 207.52 166.8 207.52Z" fill="#040919"/>
<path d="M158.76 212.16C159.147 212.16 159.46 211.847 159.46 211.46C159.46 211.073 159.147 210.76 158.76 210.76C158.373 210.76 158.06 211.073 158.06 211.46C158.06 211.847 158.373 212.16 158.76 212.16Z" fill="#040919"/>
<path d="M174.84 202.88C175.226 202.88 175.54 202.567 175.54 202.18C175.54 201.793 175.226 201.48 174.84 201.48C174.453 201.48 174.14 201.793 174.14 202.18C174.14 202.567 174.453 202.88 174.84 202.88Z" fill="#040919"/>
<path d="M150.71 216.8C151.097 216.8 151.41 216.487 151.41 216.1C151.41 215.713 151.097 215.4 150.71 215.4C150.323 215.4 150.01 215.713 150.01 216.1C150.01 216.487 150.323 216.8 150.71 216.8Z" fill="#040919"/>
<path d="M142.67 221.45C143.057 221.45 143.37 221.137 143.37 220.75C143.37 220.363 143.057 220.05 142.67 220.05C142.283 220.05 141.97 220.363 141.97 220.75C141.97 221.137 142.283 221.45 142.67 221.45Z" fill="#040919"/>
<path d="M182.88 198.23C183.266 198.23 183.58 197.917 183.58 197.53C183.58 197.143 183.266 196.83 182.88 196.83C182.493 196.83 182.18 197.143 182.18 197.53C182.18 197.917 182.493 198.23 182.88 198.23Z" fill="#040919"/>
<path d="M190.92 193.59C191.307 193.59 191.62 193.277 191.62 192.89C191.62 192.503 191.307 192.19 190.92 192.19C190.533 192.19 190.22 192.503 190.22 192.89C190.22 193.277 190.533 193.59 190.92 193.59Z" fill="#040919"/>
<path d="M198.96 188.95C199.347 188.95 199.66 188.637 199.66 188.25C199.66 187.863 199.347 187.55 198.96 187.55C198.573 187.55 198.26 187.863 198.26 188.25C198.26 188.637 198.573 188.95 198.96 188.95Z" fill="#040919"/>
<path d="M174.84 212.16C175.226 212.16 175.54 211.847 175.54 211.46C175.54 211.073 175.226 210.76 174.84 210.76C174.453 210.76 174.14 211.073 174.14 211.46C174.14 211.847 174.453 212.16 174.84 212.16Z" fill="#040919"/>
<path d="M166.8 216.8C167.187 216.8 167.5 216.487 167.5 216.1C167.5 215.713 167.187 215.4 166.8 215.4C166.413 215.4 166.1 215.713 166.1 216.1C166.1 216.487 166.413 216.8 166.8 216.8Z" fill="#040919"/>
<path d="M182.88 207.52C183.266 207.52 183.58 207.207 183.58 206.82C183.58 206.433 183.266 206.12 182.88 206.12C182.493 206.12 182.18 206.433 182.18 206.82C182.18 207.207 182.493 207.52 182.88 207.52Z" fill="#040919"/>
<path d="M158.76 221.45C159.147 221.45 159.46 221.137 159.46 220.75C159.46 220.363 159.147 220.05 158.76 220.05C158.373 220.05 158.06 220.363 158.06 220.75C158.06 221.137 158.373 221.45 158.76 221.45Z" fill="#040919"/>
<path d="M150.71 226.09C151.097 226.09 151.41 225.777 151.41 225.39C151.41 225.003 151.097 224.69 150.71 224.69C150.323 224.69 150.01 225.003 150.01 225.39C150.01 225.777 150.323 226.09 150.71 226.09Z" fill="#040919"/>
<path d="M190.92 202.88C191.307 202.88 191.62 202.567 191.62 202.18C191.62 201.793 191.307 201.48 190.92 201.48C190.533 201.48 190.22 201.793 190.22 202.18C190.22 202.567 190.533 202.88 190.92 202.88Z" fill="#040919"/>
<path d="M198.96 198.23C199.347 198.23 199.66 197.917 199.66 197.53C199.66 197.143 199.347 196.83 198.96 196.83C198.573 196.83 198.26 197.143 198.26 197.53C198.26 197.917 198.573 198.23 198.96 198.23Z" fill="#040919"/>
<path d="M207 193.59C207.387 193.59 207.7 193.277 207.7 192.89C207.7 192.503 207.387 192.19 207 192.19C206.613 192.19 206.3 192.503 206.3 192.89C206.3 193.277 206.613 193.59 207 193.59Z" fill="#040919"/>
<path d="M182.88 216.8C183.266 216.8 183.58 216.487 183.58 216.1C183.58 215.713 183.266 215.4 182.88 215.4C182.493 215.4 182.18 215.713 182.18 216.1C182.18 216.487 182.493 216.8 182.88 216.8Z" fill="#040919"/>
<path d="M174.84 221.45C175.226 221.45 175.54 221.137 175.54 220.75C175.54 220.363 175.226 220.05 174.84 220.05C174.453 220.05 174.14 220.363 174.14 220.75C174.14 221.137 174.453 221.45 174.84 221.45Z" fill="#040919"/>
<path d="M190.92 212.16C191.307 212.16 191.62 211.847 191.62 211.46C191.62 211.073 191.307 210.76 190.92 210.76C190.533 210.76 190.22 211.073 190.22 211.46C190.22 211.847 190.533 212.16 190.92 212.16Z" fill="#040919"/>
<path d="M166.8 226.09C167.187 226.09 167.5 225.777 167.5 225.39C167.5 225.003 167.187 224.69 166.8 224.69C166.413 224.69 166.1 225.003 166.1 225.39C166.1 225.777 166.413 226.09 166.8 226.09Z" fill="#040919"/>
<path d="M158.76 230.73C159.147 230.73 159.46 230.417 159.46 230.03C159.46 229.643 159.147 229.33 158.76 229.33C158.373 229.33 158.06 229.643 158.06 230.03C158.06 230.417 158.373 230.73 158.76 230.73Z" fill="#040919"/>
<path d="M198.96 207.52C199.347 207.52 199.66 207.207 199.66 206.82C199.66 206.433 199.347 206.12 198.96 206.12C198.573 206.12 198.26 206.433 198.26 206.82C198.26 207.207 198.573 207.52 198.96 207.52Z" fill="#040919"/>
<path d="M207 202.88C207.387 202.88 207.7 202.567 207.7 202.18C207.7 201.793 207.387 201.48 207 201.48C206.613 201.48 206.3 201.793 206.3 202.18C206.3 202.567 206.613 202.88 207 202.88Z" fill="#040919"/>
<path d="M215.04 198.23C215.427 198.23 215.74 197.917 215.74 197.53C215.74 197.143 215.427 196.83 215.04 196.83C214.653 196.83 214.34 197.143 214.34 197.53C214.34 197.917 214.653 198.23 215.04 198.23Z" fill="#040919"/>
<path d="M223.09 193.59C223.476 193.59 223.79 193.277 223.79 192.89C223.79 192.503 223.476 192.19 223.09 192.19C222.703 192.19 222.39 192.503 222.39 192.89C222.39 193.277 222.703 193.59 223.09 193.59Z" fill="#040919"/>
<path d="M118.55 142.52C118.937 142.52 119.25 142.207 119.25 141.82C119.25 141.433 118.937 141.12 118.55 141.12C118.163 141.12 117.85 141.433 117.85 141.82C117.85 142.207 118.163 142.52 118.55 142.52Z" fill="#040919"/>
<path d="M78.3398 165.73C78.7264 165.73 79.0399 165.417 79.0399 165.03C79.0399 164.643 78.7264 164.33 78.3398 164.33C77.9532 164.33 77.6399 164.643 77.6399 165.03C77.6399 165.417 77.9532 165.73 78.3398 165.73Z" fill="#040919"/>
<path d="M86.3799 170.38C86.7665 170.38 87.0798 170.067 87.0798 169.68C87.0798 169.293 86.7665 168.98 86.3799 168.98C85.9933 168.98 85.6799 169.293 85.6799 169.68C85.6799 170.067 85.9933 170.38 86.3799 170.38Z" fill="#040919"/>
<path d="M70.2999 170.38C70.6865 170.38 70.9999 170.067 70.9999 169.68C70.9999 169.293 70.6865 168.98 70.2999 168.98C69.9133 168.98 69.5999 169.293 69.5999 169.68C69.5999 170.067 69.9133 170.38 70.2999 170.38Z" fill="#040919"/>
<path d="M78.3398 175.02C78.7264 175.02 79.0399 174.707 79.0399 174.32C79.0399 173.933 78.7264 173.62 78.3398 173.62C77.9532 173.62 77.6399 173.933 77.6399 174.32C77.6399 174.707 77.9532 175.02 78.3398 175.02Z" fill="#040919"/>
<path d="M86.3799 179.66C86.7665 179.66 87.0798 179.347 87.0798 178.96C87.0798 178.573 86.7665 178.26 86.3799 178.26C85.9933 178.26 85.6799 178.573 85.6799 178.96C85.6799 179.347 85.9933 179.66 86.3799 179.66Z" fill="#040919"/>
<path d="M70.2999 179.66C70.6865 179.66 70.9999 179.347 70.9999 178.96C70.9999 178.573 70.6865 178.26 70.2999 178.26C69.9133 178.26 69.5999 178.573 69.5999 178.96C69.5999 179.347 69.9133 179.66 70.2999 179.66Z" fill="#040919"/>
<path d="M78.3398 184.31C78.7264 184.31 79.0399 183.997 79.0399 183.61C79.0399 183.223 78.7264 182.91 78.3398 182.91C77.9532 182.91 77.6399 183.223 77.6399 183.61C77.6399 183.997 77.9532 184.31 78.3398 184.31Z" fill="#040919"/>
<path d="M62.2601 175.02C62.6467 175.02 62.9601 174.707 62.9601 174.32C62.9601 173.933 62.6467 173.62 62.2601 173.62C61.8735 173.62 61.5601 173.933 61.5601 174.32C61.5601 174.707 61.8735 175.02 62.2601 175.02Z" fill="#040919"/>
<path d="M86.3799 188.95C86.7665 188.95 87.0798 188.637 87.0798 188.25C87.0798 187.863 86.7665 187.55 86.3799 187.55C85.9933 187.55 85.6799 187.863 85.6799 188.25C85.6799 188.637 85.9933 188.95 86.3799 188.95Z" fill="#040919"/>
<path d="M70.2999 161.09C70.6865 161.09 70.9999 160.777 70.9999 160.39C70.9999 160.003 70.6865 159.69 70.2999 159.69C69.9133 159.69 69.5999 160.003 69.5999 160.39C69.5999 160.777 69.9133 161.09 70.2999 161.09Z" fill="#040919"/>
<path d="M62.2601 165.73C62.6467 165.73 62.9601 165.417 62.9601 165.03C62.9601 164.643 62.6467 164.33 62.2601 164.33C61.8735 164.33 61.5601 164.643 61.5601 165.03C61.5601 165.417 61.8735 165.73 62.2601 165.73Z" fill="#040919"/>
<path d="M86.3799 151.81C86.7665 151.81 87.0798 151.497 87.0798 151.11C87.0798 150.723 86.7665 150.41 86.3799 150.41C85.9933 150.41 85.6799 150.723 85.6799 151.11C85.6799 151.497 85.9933 151.81 86.3799 151.81Z" fill="#040919"/>
<path d="M78.3398 156.45C78.7264 156.45 79.0399 156.137 79.0399 155.75C79.0399 155.363 78.7264 155.05 78.3398 155.05C77.9532 155.05 77.6399 155.363 77.6399 155.75C77.6399 156.137 77.9532 156.45 78.3398 156.45Z" fill="#040919"/>
<path d="M94.42 147.16C94.8066 147.16 95.12 146.847 95.12 146.46C95.12 146.073 94.8066 145.76 94.42 145.76C94.0334 145.76 93.72 146.073 93.72 146.46C93.72 146.847 94.0334 147.16 94.42 147.16Z" fill="#040919"/>
<path d="M54.22 170.38C54.6066 170.38 54.92 170.067 54.92 169.68C54.92 169.293 54.6066 168.98 54.22 168.98C53.8334 168.98 53.52 169.293 53.52 169.68C53.52 170.067 53.8334 170.38 54.22 170.38Z" fill="#040919"/>
<path d="M70.2999 142.52C70.6865 142.52 70.9999 142.207 70.9999 141.82C70.9999 141.433 70.6865 141.12 70.2999 141.12C69.9133 141.12 69.5999 141.433 69.5999 141.82C69.5999 142.207 69.9133 142.52 70.2999 142.52Z" fill="#040919"/>
<path d="M62.2601 147.16C62.6467 147.16 62.9601 146.847 62.9601 146.46C62.9601 146.073 62.6467 145.76 62.2601 145.76C61.8735 145.76 61.5601 146.073 61.5601 146.46C61.5601 146.847 61.8735 147.16 62.2601 147.16Z" fill="#040919"/>
<path d="M54.22 151.81C54.6066 151.81 54.92 151.497 54.92 151.11C54.92 150.723 54.6066 150.41 54.22 150.41C53.8334 150.41 53.52 150.723 53.52 151.11C53.52 151.497 53.8334 151.81 54.22 151.81Z" fill="#040919"/>
<path d="M46.18 156.45C46.5666 156.45 46.88 156.137 46.88 155.75C46.88 155.363 46.5666 155.05 46.18 155.05C45.7934 155.05 45.48 155.363 45.48 155.75C45.48 156.137 45.7934 156.45 46.18 156.45Z" fill="#040919"/>
<path d="M70.2999 151.81C70.6865 151.81 70.9999 151.497 70.9999 151.11C70.9999 150.723 70.6865 150.41 70.2999 150.41C69.9133 150.41 69.5999 150.723 69.5999 151.11C69.5999 151.497 69.9133 151.81 70.2999 151.81Z" fill="#040919"/>
<path d="M62.2601 156.45C62.6467 156.45 62.9601 156.137 62.9601 155.75C62.9601 155.363 62.6467 155.05 62.2601 155.05C61.8735 155.05 61.5601 155.363 61.5601 155.75C61.5601 156.137 61.8735 156.45 62.2601 156.45Z" fill="#040919"/>
<path d="M78.3398 147.16C78.7264 147.16 79.0399 146.847 79.0399 146.46C79.0399 146.073 78.7264 145.76 78.3398 145.76C77.9532 145.76 77.6399 146.073 77.6399 146.46C77.6399 146.847 77.9532 147.16 78.3398 147.16Z" fill="#040919"/>
<path d="M54.22 161.09C54.6066 161.09 54.92 160.777 54.92 160.39C54.92 160.003 54.6066 159.69 54.22 159.69C53.8334 159.69 53.52 160.003 53.52 160.39C53.52 160.777 53.8334 161.09 54.22 161.09Z" fill="#040919"/>
<path d="M46.18 165.73C46.5666 165.73 46.88 165.417 46.88 165.03C46.88 164.643 46.5666 164.33 46.18 164.33C45.7934 164.33 45.48 164.643 45.48 165.03C45.48 165.417 45.7934 165.73 46.18 165.73Z" fill="#040919"/>
<path d="M102.47 142.52C102.857 142.52 103.17 142.207 103.17 141.82C103.17 141.433 102.857 141.12 102.47 141.12C102.083 141.12 101.77 141.433 101.77 141.82C101.77 142.207 102.083 142.52 102.47 142.52Z" fill="#040919"/>
<path d="M86.3799 133.24C86.7665 133.24 87.0798 132.927 87.0798 132.54C87.0798 132.153 86.7665 131.84 86.3799 131.84C85.9933 131.84 85.6799 132.153 85.6799 132.54C85.6799 132.927 85.9933 133.24 86.3799 133.24Z" fill="#040919"/>
<path d="M78.3398 137.88C78.7264 137.88 79.0399 137.567 79.0399 137.18C79.0399 136.793 78.7264 136.48 78.3398 136.48C77.9532 136.48 77.6399 136.793 77.6399 137.18C77.6399 137.567 77.9532 137.88 78.3398 137.88Z" fill="#040919"/>
<path d="M86.3799 142.52C86.7665 142.52 87.0798 142.207 87.0798 141.82C87.0798 141.433 86.7665 141.12 86.3799 141.12C85.9933 141.12 85.6799 141.433 85.6799 141.82C85.6799 142.207 85.9933 142.52 86.3799 142.52Z" fill="#040919"/>
<path d="M94.42 137.88C94.8066 137.88 95.12 137.567 95.12 137.18C95.12 136.793 94.8066 136.48 94.42 136.48C94.0334 136.48 93.72 136.793 93.72 137.18C93.72 137.567 94.0334 137.88 94.42 137.88Z" fill="#040919"/>
<path d="M110.51 137.88C110.897 137.88 111.21 137.567 111.21 137.18C111.21 136.793 110.897 136.48 110.51 136.48C110.123 136.48 109.81 136.793 109.81 137.18C109.81 137.567 110.123 137.88 110.51 137.88Z" fill="#040919"/>
<path d="M94.42 128.59C94.8066 128.59 95.12 128.277 95.12 127.89C95.12 127.503 94.8066 127.19 94.42 127.19C94.0334 127.19 93.72 127.503 93.72 127.89C93.72 128.277 94.0334 128.59 94.42 128.59Z" fill="#040919"/>
<path d="M102.47 133.24C102.857 133.24 103.17 132.927 103.17 132.54C103.17 132.153 102.857 131.84 102.47 131.84C102.083 131.84 101.77 132.153 101.77 132.54C101.77 132.927 102.083 133.24 102.47 133.24Z" fill="#040919"/>
<path d="M38.1299 161.09C38.5165 161.09 38.83 160.777 38.83 160.39C38.83 160.003 38.5165 159.69 38.1299 159.69C37.7433 159.69 37.4299 160.003 37.4299 160.39C37.4299 160.777 37.7433 161.09 38.1299 161.09Z" fill="#040919"/>
<path d="M158.76 119.31C159.147 119.31 159.46 118.997 159.46 118.61C159.46 118.223 159.147 117.91 158.76 117.91C158.373 117.91 158.06 118.223 158.06 118.61C158.06 118.997 158.373 119.31 158.76 119.31Z" fill="#040919"/>
<path d="M166.8 123.95C167.187 123.95 167.5 123.637 167.5 123.25C167.5 122.863 167.187 122.55 166.8 122.55C166.413 122.55 166.1 122.863 166.1 123.25C166.1 123.637 166.413 123.95 166.8 123.95Z" fill="#040919"/>
<path d="M158.76 128.59C159.147 128.59 159.46 128.277 159.46 127.89C159.46 127.503 159.147 127.19 158.76 127.19C158.373 127.19 158.06 127.503 158.06 127.89C158.06 128.277 158.373 128.59 158.76 128.59Z" fill="#040919"/>
<path d="M174.84 128.59C175.226 128.59 175.54 128.277 175.54 127.89C175.54 127.503 175.226 127.19 174.84 127.19C174.453 127.19 174.14 127.503 174.14 127.89C174.14 128.277 174.453 128.59 174.84 128.59Z" fill="#040919"/>
<path d="M166.8 133.24C167.187 133.24 167.5 132.927 167.5 132.54C167.5 132.153 167.187 131.84 166.8 131.84C166.413 131.84 166.1 132.153 166.1 132.54C166.1 132.927 166.413 133.24 166.8 133.24Z" fill="#040919"/>
<path d="M158.76 137.88C159.147 137.88 159.46 137.567 159.46 137.18C159.46 136.793 159.147 136.48 158.76 136.48C158.373 136.48 158.06 136.793 158.06 137.18C158.06 137.567 158.373 137.88 158.76 137.88Z" fill="#040919"/>
<path d="M182.88 133.24C183.266 133.24 183.58 132.927 183.58 132.54C183.58 132.153 183.266 131.84 182.88 131.84C182.493 131.84 182.18 132.153 182.18 132.54C182.18 132.927 182.493 133.24 182.88 133.24Z" fill="#040919"/>
<path d="M174.84 137.88C175.226 137.88 175.54 137.567 175.54 137.18C175.54 136.793 175.226 136.48 174.84 136.48C174.453 136.48 174.14 136.793 174.14 137.18C174.14 137.567 174.453 137.88 174.84 137.88Z" fill="#040919"/>
<path d="M166.8 142.52C167.187 142.52 167.5 142.207 167.5 141.82C167.5 141.433 167.187 141.12 166.8 141.12C166.413 141.12 166.1 141.433 166.1 141.82C166.1 142.207 166.413 142.52 166.8 142.52Z" fill="#040919"/>
<path d="M158.76 147.16C159.147 147.16 159.46 146.847 159.46 146.46C159.46 146.073 159.147 145.76 158.76 145.76C158.373 145.76 158.06 146.073 158.06 146.46C158.06 146.847 158.373 147.16 158.76 147.16Z" fill="#040919"/>
<path d="M182.88 142.52C183.266 142.52 183.58 142.207 183.58 141.82C183.58 141.433 183.266 141.12 182.88 141.12C182.493 141.12 182.18 141.433 182.18 141.82C182.18 142.207 182.493 142.52 182.88 142.52Z" fill="#040919"/>
<path d="M174.84 147.16C175.226 147.16 175.54 146.847 175.54 146.46C175.54 146.073 175.226 145.76 174.84 145.76C174.453 145.76 174.14 146.073 174.14 146.46C174.14 146.847 174.453 147.16 174.84 147.16Z" fill="#040919"/>
<path d="M190.92 137.88C191.307 137.88 191.62 137.567 191.62 137.18C191.62 136.793 191.307 136.48 190.92 136.48C190.533 136.48 190.22 136.793 190.22 137.18C190.22 137.567 190.533 137.88 190.92 137.88Z" fill="#040919"/>
<path d="M166.8 151.81C167.187 151.81 167.5 151.497 167.5 151.11C167.5 150.723 167.187 150.41 166.8 150.41C166.413 150.41 166.1 150.723 166.1 151.11C166.1 151.497 166.413 151.81 166.8 151.81Z" fill="#040919"/>
<path d="M158.76 156.45C159.147 156.45 159.46 156.137 159.46 155.75C159.46 155.363 159.147 155.05 158.76 155.05C158.373 155.05 158.06 155.363 158.06 155.75C158.06 156.137 158.373 156.45 158.76 156.45Z" fill="#040919"/>
<path d="M150.71 123.95C151.097 123.95 151.41 123.637 151.41 123.25C151.41 122.863 151.097 122.55 150.71 122.55C150.323 122.55 150.01 122.863 150.01 123.25C150.01 123.637 150.323 123.95 150.71 123.95Z" fill="#040919"/>
<path d="M174.84 110.02C175.226 110.02 175.54 109.707 175.54 109.32C175.54 108.933 175.226 108.62 174.84 108.62C174.453 108.62 174.14 108.933 174.14 109.32C174.14 109.707 174.453 110.02 174.84 110.02Z" fill="#040919"/>
<path d="M182.88 114.66C183.266 114.66 183.58 114.347 183.58 113.96C183.58 113.573 183.266 113.26 182.88 113.26C182.493 113.26 182.18 113.573 182.18 113.96C182.18 114.347 182.493 114.66 182.88 114.66Z" fill="#040919"/>
<path d="M174.84 119.31C175.226 119.31 175.54 118.997 175.54 118.61C175.54 118.223 175.226 117.91 174.84 117.91C174.453 117.91 174.14 118.223 174.14 118.61C174.14 118.997 174.453 119.31 174.84 119.31Z" fill="#040919"/>
<path d="M190.92 119.31C191.307 119.31 191.62 118.997 191.62 118.61C191.62 118.223 191.307 117.91 190.92 117.91C190.533 117.91 190.22 118.223 190.22 118.61C190.22 118.997 190.533 119.31 190.92 119.31Z" fill="#040919"/>
<path d="M182.88 123.95C183.266 123.95 183.58 123.637 183.58 123.25C183.58 122.863 183.266 122.55 182.88 122.55C182.493 122.55 182.18 122.863 182.18 123.25C182.18 123.637 182.493 123.95 182.88 123.95Z" fill="#040919"/>
<path d="M198.96 123.95C199.347 123.95 199.66 123.637 199.66 123.25C199.66 122.863 199.347 122.55 198.96 122.55C198.573 122.55 198.26 122.863 198.26 123.25C198.26 123.637 198.573 123.95 198.96 123.95Z" fill="#040919"/>
<path d="M190.92 128.59C191.307 128.59 191.62 128.277 191.62 127.89C191.62 127.503 191.307 127.19 190.92 127.19C190.533 127.19 190.22 127.503 190.22 127.89C190.22 128.277 190.533 128.59 190.92 128.59Z" fill="#040919"/>
<path d="M198.96 133.24C199.347 133.24 199.66 132.927 199.66 132.54C199.66 132.153 199.347 131.84 198.96 131.84C198.573 131.84 198.26 132.153 198.26 132.54C198.26 132.927 198.573 133.24 198.96 133.24Z" fill="#040919"/>
<path d="M207 128.59C207.387 128.59 207.7 128.277 207.7 127.89C207.7 127.503 207.387 127.19 207 127.19C206.613 127.19 206.3 127.503 206.3 127.89C206.3 128.277 206.613 128.59 207 128.59Z" fill="#040919"/>
<path d="M166.8 114.66C167.187 114.66 167.5 114.347 167.5 113.96C167.5 113.573 167.187 113.26 166.8 113.26C166.413 113.26 166.1 113.573 166.1 113.96C166.1 114.347 166.413 114.66 166.8 114.66Z" fill="#040919"/>
<path d="M190.92 110.02C191.307 110.02 191.62 109.707 191.62 109.32C191.62 108.933 191.307 108.62 190.92 108.62C190.533 108.62 190.22 108.933 190.22 109.32C190.22 109.707 190.533 110.02 190.92 110.02Z" fill="#040919"/>
<path d="M198.96 114.66C199.347 114.66 199.66 114.347 199.66 113.96C199.66 113.573 199.347 113.26 198.96 113.26C198.573 113.26 198.26 113.573 198.26 113.96C198.26 114.347 198.573 114.66 198.96 114.66Z" fill="#040919"/>
<path d="M207 119.31C207.387 119.31 207.7 118.997 207.7 118.61C207.7 118.223 207.387 117.91 207 117.91C206.613 117.91 206.3 118.223 206.3 118.61C206.3 118.997 206.613 119.31 207 119.31Z" fill="#040919"/>
<path d="M215.04 123.95C215.427 123.95 215.74 123.637 215.74 123.25C215.74 122.863 215.427 122.55 215.04 122.55C214.653 122.55 214.34 122.863 214.34 123.25C214.34 123.637 214.653 123.95 215.04 123.95Z" fill="#040919"/>
<path d="M190.92 147.16C191.307 147.16 191.62 146.847 191.62 146.46C191.62 146.073 191.307 145.76 190.92 145.76C190.533 145.76 190.22 146.073 190.22 146.46C190.22 146.847 190.533 147.16 190.92 147.16Z" fill="#040919"/>
<path d="M182.88 151.81C183.266 151.81 183.58 151.497 183.58 151.11C183.58 150.723 183.266 150.41 182.88 150.41C182.493 150.41 182.18 150.723 182.18 151.11C182.18 151.497 182.493 151.81 182.88 151.81Z" fill="#040919"/>
<path d="M198.96 142.52C199.347 142.52 199.66 142.207 199.66 141.82C199.66 141.433 199.347 141.12 198.96 141.12C198.573 141.12 198.26 141.433 198.26 141.82C198.26 142.207 198.573 142.52 198.96 142.52Z" fill="#040919"/>
<path d="M174.84 156.45C175.226 156.45 175.54 156.137 175.54 155.75C175.54 155.363 175.226 155.05 174.84 155.05C174.453 155.05 174.14 155.363 174.14 155.75C174.14 156.137 174.453 156.45 174.84 156.45Z" fill="#040919"/>
<path d="M166.8 161.09C167.187 161.09 167.5 160.777 167.5 160.39C167.5 160.003 167.187 159.69 166.8 159.69C166.413 159.69 166.1 160.003 166.1 160.39C166.1 160.777 166.413 161.09 166.8 161.09Z" fill="#040919"/>
<path d="M207 137.88C207.387 137.88 207.7 137.567 207.7 137.18C207.7 136.793 207.387 136.48 207 136.48C206.613 136.48 206.3 136.793 206.3 137.18C206.3 137.567 206.613 137.88 207 137.88Z" fill="#040919"/>
<path d="M215.04 133.24C215.427 133.24 215.74 132.927 215.74 132.54C215.74 132.153 215.427 131.84 215.04 131.84C214.653 131.84 214.34 132.153 214.34 132.54C214.34 132.927 214.653 133.24 215.04 133.24Z" fill="#040919"/>
<path d="M223.09 128.59C223.476 128.59 223.79 128.277 223.79 127.89C223.79 127.503 223.476 127.19 223.09 127.19C222.703 127.19 222.39 127.503 222.39 127.89C222.39 128.277 222.703 128.59 223.09 128.59Z" fill="#040919"/>
<path d="M198.96 151.81C199.347 151.81 199.66 151.497 199.66 151.11C199.66 150.723 199.347 150.41 198.96 150.41C198.573 150.41 198.26 150.723 198.26 151.11C198.26 151.497 198.573 151.81 198.96 151.81Z" fill="#040919"/>
<path d="M190.92 156.45C191.307 156.45 191.62 156.137 191.62 155.75C191.62 155.363 191.307 155.05 190.92 155.05C190.533 155.05 190.22 155.363 190.22 155.75C190.22 156.137 190.533 156.45 190.92 156.45Z" fill="#040919"/>
<path d="M207 147.16C207.387 147.16 207.7 146.847 207.7 146.46C207.7 146.073 207.387 145.76 207 145.76C206.613 145.76 206.3 146.073 206.3 146.46C206.3 146.847 206.613 147.16 207 147.16Z" fill="#040919"/>
<path d="M182.88 161.09C183.266 161.09 183.58 160.777 183.58 160.39C183.58 160.003 183.266 159.69 182.88 159.69C182.493 159.69 182.18 160.003 182.18 160.39C182.18 160.777 182.493 161.09 182.88 161.09Z" fill="#040919"/>
<path d="M174.84 165.73C175.226 165.73 175.54 165.417 175.54 165.03C175.54 164.643 175.226 164.33 174.84 164.33C174.453 164.33 174.14 164.643 174.14 165.03C174.14 165.417 174.453 165.73 174.84 165.73Z" fill="#040919"/>
<path d="M215.04 142.52C215.427 142.52 215.74 142.207 215.74 141.82C215.74 141.433 215.427 141.12 215.04 141.12C214.653 141.12 214.34 141.433 214.34 141.82C214.34 142.207 214.653 142.52 215.04 142.52Z" fill="#040919"/>
<path d="M223.09 137.88C223.476 137.88 223.79 137.567 223.79 137.18C223.79 136.793 223.476 136.48 223.09 136.48C222.703 136.48 222.39 136.793 222.39 137.18C222.39 137.567 222.703 137.88 223.09 137.88Z" fill="#040919"/>
<path d="M231.13 133.24C231.516 133.24 231.83 132.927 231.83 132.54C231.83 132.153 231.516 131.84 231.13 131.84C230.743 131.84 230.43 132.153 230.43 132.54C230.43 132.927 230.743 133.24 231.13 133.24Z" fill="#040919"/>
<path d="M207 156.45C207.387 156.45 207.7 156.137 207.7 155.75C207.7 155.363 207.387 155.05 207 155.05C206.613 155.05 206.3 155.363 206.3 155.75C206.3 156.137 206.613 156.45 207 156.45Z" fill="#040919"/>
<path d="M198.96 161.09C199.347 161.09 199.66 160.777 199.66 160.39C199.66 160.003 199.347 159.69 198.96 159.69C198.573 159.69 198.26 160.003 198.26 160.39C198.26 160.777 198.573 161.09 198.96 161.09Z" fill="#040919"/>
<path d="M215.04 151.81C215.427 151.81 215.74 151.497 215.74 151.11C215.74 150.723 215.427 150.41 215.04 150.41C214.653 150.41 214.34 150.723 214.34 151.11C214.34 151.497 214.653 151.81 215.04 151.81Z" fill="#040919"/>
<path d="M190.92 165.73C191.307 165.73 191.62 165.417 191.62 165.03C191.62 164.643 191.307 164.33 190.92 164.33C190.533 164.33 190.22 164.643 190.22 165.03C190.22 165.417 190.533 165.73 190.92 165.73Z" fill="#040919"/>
<path d="M182.88 170.38C183.266 170.38 183.58 170.067 183.58 169.68C183.58 169.293 183.266 168.98 182.88 168.98C182.493 168.98 182.18 169.293 182.18 169.68C182.18 170.067 182.493 170.38 182.88 170.38Z" fill="#040919"/>
<path d="M223.09 147.16C223.476 147.16 223.79 146.847 223.79 146.46C223.79 146.073 223.476 145.76 223.09 145.76C222.703 145.76 222.39 146.073 222.39 146.46C222.39 146.847 222.703 147.16 223.09 147.16Z" fill="#040919"/>
<path d="M231.13 142.52C231.516 142.52 231.83 142.207 231.83 141.82C231.83 141.433 231.516 141.12 231.13 141.12C230.743 141.12 230.43 141.433 230.43 141.82C230.43 142.207 230.743 142.52 231.13 142.52Z" fill="#040919"/>
<path d="M239.17 137.88C239.557 137.88 239.87 137.567 239.87 137.18C239.87 136.793 239.557 136.48 239.17 136.48C238.783 136.48 238.47 136.793 238.47 137.18C238.47 137.567 238.783 137.88 239.17 137.88Z" fill="#040919"/>
<path d="M215.04 161.09C215.427 161.09 215.74 160.777 215.74 160.39C215.74 160.003 215.427 159.69 215.04 159.69C214.653 159.69 214.34 160.003 214.34 160.39C214.34 160.777 214.653 161.09 215.04 161.09Z" fill="#040919"/>
<path d="M207 165.73C207.387 165.73 207.7 165.417 207.7 165.03C207.7 164.643 207.387 164.33 207 164.33C206.613 164.33 206.3 164.643 206.3 165.03C206.3 165.417 206.613 165.73 207 165.73Z" fill="#040919"/>
<path d="M223.09 156.45C223.476 156.45 223.79 156.137 223.79 155.75C223.79 155.363 223.476 155.05 223.09 155.05C222.703 155.05 222.39 155.363 222.39 155.75C222.39 156.137 222.703 156.45 223.09 156.45Z" fill="#040919"/>
<path d="M198.96 170.38C199.347 170.38 199.66 170.067 199.66 169.68C199.66 169.293 199.347 168.98 198.96 168.98C198.573 168.98 198.26 169.293 198.26 169.68C198.26 170.067 198.573 170.38 198.96 170.38Z" fill="#040919"/>
<path d="M190.92 175.02C191.307 175.02 191.62 174.707 191.62 174.32C191.62 173.933 191.307 173.62 190.92 173.62C190.533 173.62 190.22 173.933 190.22 174.32C190.22 174.707 190.533 175.02 190.92 175.02Z" fill="#040919"/>
<path d="M231.13 151.81C231.516 151.81 231.83 151.497 231.83 151.11C231.83 150.723 231.516 150.41 231.13 150.41C230.743 150.41 230.43 150.723 230.43 151.11C230.43 151.497 230.743 151.81 231.13 151.81Z" fill="#040919"/>
<path d="M239.17 147.16C239.557 147.16 239.87 146.847 239.87 146.46C239.87 146.073 239.557 145.76 239.17 145.76C238.783 145.76 238.47 146.073 238.47 146.46C238.47 146.847 238.783 147.16 239.17 147.16Z" fill="#040919"/>
<path d="M247.21 142.52C247.597 142.52 247.91 142.207 247.91 141.82C247.91 141.433 247.597 141.12 247.21 141.12C246.823 141.12 246.51 141.433 246.51 141.82C246.51 142.207 246.823 142.52 247.21 142.52Z" fill="#040919"/>
<path d="M223.09 165.73C223.476 165.73 223.79 165.417 223.79 165.03C223.79 164.643 223.476 164.33 223.09 164.33C222.703 164.33 222.39 164.643 222.39 165.03C222.39 165.417 222.703 165.73 223.09 165.73Z" fill="#040919"/>
<path d="M215.04 170.38C215.427 170.38 215.74 170.067 215.74 169.68C215.74 169.293 215.427 168.98 215.04 168.98C214.653 168.98 214.34 169.293 214.34 169.68C214.34 170.067 214.653 170.38 215.04 170.38Z" fill="#040919"/>
<path d="M231.13 161.09C231.516 161.09 231.83 160.777 231.83 160.39C231.83 160.003 231.516 159.69 231.13 159.69C230.743 159.69 230.43 160.003 230.43 160.39C230.43 160.777 230.743 161.09 231.13 161.09Z" fill="#040919"/>
<path d="M207 175.02C207.387 175.02 207.7 174.707 207.7 174.32C207.7 173.933 207.387 173.62 207 173.62C206.613 173.62 206.3 173.933 206.3 174.32C206.3 174.707 206.613 175.02 207 175.02Z" fill="#040919"/>
<path d="M198.96 179.66C199.347 179.66 199.66 179.347 199.66 178.96C199.66 178.573 199.347 178.26 198.96 178.26C198.573 178.26 198.26 178.573 198.26 178.96C198.26 179.347 198.573 179.66 198.96 179.66Z" fill="#040919"/>
<path d="M239.17 156.45C239.557 156.45 239.87 156.137 239.87 155.75C239.87 155.363 239.557 155.05 239.17 155.05C238.783 155.05 238.47 155.363 238.47 155.75C238.47 156.137 238.783 156.45 239.17 156.45Z" fill="#040919"/>
<path d="M247.21 151.81C247.597 151.81 247.91 151.497 247.91 151.11C247.91 150.723 247.597 150.41 247.21 150.41C246.823 150.41 246.51 150.723 246.51 151.11C246.51 151.497 246.823 151.81 247.21 151.81Z" fill="#040919"/>
<path d="M255.25 147.16C255.637 147.16 255.95 146.847 255.95 146.46C255.95 146.073 255.637 145.76 255.25 145.76C254.863 145.76 254.55 146.073 254.55 146.46C254.55 146.847 254.863 147.16 255.25 147.16Z" fill="#040919"/>
<path d="M231.13 170.38C231.516 170.38 231.83 170.067 231.83 169.68C231.83 169.293 231.516 168.98 231.13 168.98C230.743 168.98 230.43 169.293 230.43 169.68C230.43 170.067 230.743 170.38 231.13 170.38Z" fill="#040919"/>
<path d="M223.09 175.02C223.476 175.02 223.79 174.707 223.79 174.32C223.79 173.933 223.476 173.62 223.09 173.62C222.703 173.62 222.39 173.933 222.39 174.32C222.39 174.707 222.703 175.02 223.09 175.02Z" fill="#040919"/>
<path d="M239.17 165.73C239.557 165.73 239.87 165.417 239.87 165.03C239.87 164.643 239.557 164.33 239.17 164.33C238.783 164.33 238.47 164.643 238.47 165.03C238.47 165.417 238.783 165.73 239.17 165.73Z" fill="#040919"/>
<path d="M215.04 179.66C215.427 179.66 215.74 179.347 215.74 178.96C215.74 178.573 215.427 178.26 215.04 178.26C214.653 178.26 214.34 178.573 214.34 178.96C214.34 179.347 214.653 179.66 215.04 179.66Z" fill="#040919"/>
<path d="M207 184.31C207.387 184.31 207.7 183.997 207.7 183.61C207.7 183.223 207.387 182.91 207 182.91C206.613 182.91 206.3 183.223 206.3 183.61C206.3 183.997 206.613 184.31 207 184.31Z" fill="#040919"/>
<path d="M247.21 161.09C247.597 161.09 247.91 160.777 247.91 160.39C247.91 160.003 247.597 159.69 247.21 159.69C246.823 159.69 246.51 160.003 246.51 160.39C246.51 160.777 246.823 161.09 247.21 161.09Z" fill="#040919"/>
<path d="M255.25 156.45C255.637 156.45 255.95 156.137 255.95 155.75C255.95 155.363 255.637 155.05 255.25 155.05C254.863 155.05 254.55 155.363 254.55 155.75C254.55 156.137 254.863 156.45 255.25 156.45Z" fill="#040919"/>
<path d="M263.29 151.81C263.677 151.81 263.99 151.497 263.99 151.11C263.99 150.723 263.677 150.41 263.29 150.41C262.903 150.41 262.59 150.723 262.59 151.11C262.59 151.497 262.903 151.81 263.29 151.81Z" fill="#040919"/>
<path d="M239.17 175.02C239.557 175.02 239.87 174.707 239.87 174.32C239.87 173.933 239.557 173.62 239.17 173.62C238.783 173.62 238.47 173.933 238.47 174.32C238.47 174.707 238.783 175.02 239.17 175.02Z" fill="#040919"/>
<path d="M231.13 179.66C231.516 179.66 231.83 179.347 231.83 178.96C231.83 178.573 231.516 178.26 231.13 178.26C230.743 178.26 230.43 178.573 230.43 178.96C230.43 179.347 230.743 179.66 231.13 179.66Z" fill="#040919"/>
<path d="M247.21 170.38C247.597 170.38 247.91 170.067 247.91 169.68C247.91 169.293 247.597 168.98 247.21 168.98C246.823 168.98 246.51 169.293 246.51 169.68C246.51 170.067 246.823 170.38 247.21 170.38Z" fill="#040919"/>
<path d="M223.09 184.31C223.476 184.31 223.79 183.997 223.79 183.61C223.79 183.223 223.476 182.91 223.09 182.91C222.703 182.91 222.39 183.223 222.39 183.61C222.39 183.997 222.703 184.31 223.09 184.31Z" fill="#040919"/>
<path d="M215.04 188.95C215.427 188.95 215.74 188.637 215.74 188.25C215.74 187.863 215.427 187.55 215.04 187.55C214.653 187.55 214.34 187.863 214.34 188.25C214.34 188.637 214.653 188.95 215.04 188.95Z" fill="#040919"/>
<path d="M255.25 165.73C255.637 165.73 255.95 165.417 255.95 165.03C255.95 164.643 255.637 164.33 255.25 164.33C254.863 164.33 254.55 164.643 254.55 165.03C254.55 165.417 254.863 165.73 255.25 165.73Z" fill="#040919"/>
<path d="M263.29 161.09C263.677 161.09 263.99 160.777 263.99 160.39C263.99 160.003 263.677 159.69 263.29 159.69C262.903 159.69 262.59 160.003 262.59 160.39C262.59 160.777 262.903 161.09 263.29 161.09Z" fill="#040919"/>
<path d="M271.33 156.45C271.716 156.45 272.03 156.137 272.03 155.75C272.03 155.363 271.716 155.05 271.33 155.05C270.943 155.05 270.63 155.363 270.63 155.75C270.63 156.137 270.943 156.45 271.33 156.45Z" fill="#040919"/>
<path d="M247.21 179.66C247.597 179.66 247.91 179.347 247.91 178.96C247.91 178.573 247.597 178.26 247.21 178.26C246.823 178.26 246.51 178.573 246.51 178.96C246.51 179.347 246.823 179.66 247.21 179.66Z" fill="#040919"/>
<path d="M239.17 184.31C239.557 184.31 239.87 183.997 239.87 183.61C239.87 183.223 239.557 182.91 239.17 182.91C238.783 182.91 238.47 183.223 238.47 183.61C238.47 183.997 238.783 184.31 239.17 184.31Z" fill="#040919"/>
<path d="M255.25 175.02C255.637 175.02 255.95 174.707 255.95 174.32C255.95 173.933 255.637 173.62 255.25 173.62C254.863 173.62 254.55 173.933 254.55 174.32C254.55 174.707 254.863 175.02 255.25 175.02Z" fill="#040919"/>
<path d="M231.13 188.95C231.516 188.95 231.83 188.637 231.83 188.25C231.83 187.863 231.516 187.55 231.13 187.55C230.743 187.55 230.43 187.863 230.43 188.25C230.43 188.637 230.743 188.95 231.13 188.95Z" fill="#040919"/>
<path d="M263.29 170.38C263.677 170.38 263.99 170.067 263.99 169.68C263.99 169.293 263.677 168.98 263.29 168.98C262.903 168.98 262.59 169.293 262.59 169.68C262.59 170.067 262.903 170.38 263.29 170.38Z" fill="#040919"/>
<path d="M271.33 165.73C271.716 165.73 272.03 165.417 272.03 165.03C272.03 164.643 271.716 164.33 271.33 164.33C270.943 164.33 270.63 164.643 270.63 165.03C270.63 165.417 270.943 165.73 271.33 165.73Z" fill="#040919"/>
<path d="M279.38 161.09C279.766 161.09 280.08 160.777 280.08 160.39C280.08 160.003 279.766 159.69 279.38 159.69C278.993 159.69 278.68 160.003 278.68 160.39C278.68 160.777 278.993 161.09 279.38 161.09Z" fill="#040919"/>
<path d="M182.88 105.38C183.266 105.38 183.58 105.067 183.58 104.68C183.58 104.294 183.266 103.98 182.88 103.98C182.493 103.98 182.18 104.294 182.18 104.68C182.18 105.067 182.493 105.38 182.88 105.38Z" fill="#040919"/>
<path d="M142.67 128.59C143.057 128.59 143.37 128.277 143.37 127.89C143.37 127.503 143.057 127.19 142.67 127.19C142.283 127.19 141.97 127.503 141.97 127.89C141.97 128.277 142.283 128.59 142.67 128.59Z" fill="#040919"/>
<path d="M150.71 133.24C151.097 133.24 151.41 132.927 151.41 132.54C151.41 132.153 151.097 131.84 150.71 131.84C150.323 131.84 150.01 132.153 150.01 132.54C150.01 132.927 150.323 133.24 150.71 133.24Z" fill="#040919"/>
<path d="M134.63 133.24C135.016 133.24 135.33 132.927 135.33 132.54C135.33 132.153 135.016 131.84 134.63 131.84C134.243 131.84 133.93 132.153 133.93 132.54C133.93 132.927 134.243 133.24 134.63 133.24Z" fill="#040919"/>
<path d="M142.67 137.88C143.057 137.88 143.37 137.567 143.37 137.18C143.37 136.793 143.057 136.48 142.67 136.48C142.283 136.48 141.97 136.793 141.97 137.18C141.97 137.567 142.283 137.88 142.67 137.88Z" fill="#040919"/>
<path d="M150.71 142.52C151.097 142.52 151.41 142.207 151.41 141.82C151.41 141.433 151.097 141.12 150.71 141.12C150.323 141.12 150.01 141.433 150.01 141.82C150.01 142.207 150.323 142.52 150.71 142.52Z" fill="#040919"/>
<path d="M134.63 142.52C135.016 142.52 135.33 142.207 135.33 141.82C135.33 141.433 135.016 141.12 134.63 141.12C134.243 141.12 133.93 141.433 133.93 141.82C133.93 142.207 134.243 142.52 134.63 142.52Z" fill="#040919"/>
<path d="M142.67 147.16C143.057 147.16 143.37 146.847 143.37 146.46C143.37 146.073 143.057 145.76 142.67 145.76C142.283 145.76 141.97 146.073 141.97 146.46C141.97 146.847 142.283 147.16 142.67 147.16Z" fill="#040919"/>
<path d="M126.59 137.88C126.976 137.88 127.29 137.567 127.29 137.18C127.29 136.793 126.976 136.48 126.59 136.48C126.203 136.48 125.89 136.793 125.89 137.18C125.89 137.567 126.203 137.88 126.59 137.88Z" fill="#040919"/>
<path d="M150.71 151.81C151.097 151.81 151.41 151.497 151.41 151.11C151.41 150.723 151.097 150.41 150.71 150.41C150.323 150.41 150.01 150.723 150.01 151.11C150.01 151.497 150.323 151.81 150.71 151.81Z" fill="#040919"/>
<path d="M134.63 123.95C135.016 123.95 135.33 123.637 135.33 123.25C135.33 122.863 135.016 122.55 134.63 122.55C134.243 122.55 133.93 122.863 133.93 123.25C133.93 123.637 134.243 123.95 134.63 123.95Z" fill="#040919"/>
<path d="M126.59 128.59C126.976 128.59 127.29 128.277 127.29 127.89C127.29 127.503 126.976 127.19 126.59 127.19C126.203 127.19 125.89 127.503 125.89 127.89C125.89 128.277 126.203 128.59 126.59 128.59Z" fill="#040919"/>
<path d="M150.71 114.66C151.097 114.66 151.41 114.347 151.41 113.96C151.41 113.573 151.097 113.26 150.71 113.26C150.323 113.26 150.01 113.573 150.01 113.96C150.01 114.347 150.323 114.66 150.71 114.66Z" fill="#040919"/>
<path d="M142.67 119.31C143.057 119.31 143.37 118.997 143.37 118.61C143.37 118.223 143.057 117.91 142.67 117.91C142.283 117.91 141.97 118.223 141.97 118.61C141.97 118.997 142.283 119.31 142.67 119.31Z" fill="#040919"/>
<path d="M158.76 110.02C159.147 110.02 159.46 109.707 159.46 109.32C159.46 108.933 159.147 108.62 158.76 108.62C158.373 108.62 158.06 108.933 158.06 109.32C158.06 109.707 158.373 110.02 158.76 110.02Z" fill="#040919"/>
<path d="M118.55 133.24C118.937 133.24 119.25 132.927 119.25 132.54C119.25 132.153 118.937 131.84 118.55 131.84C118.163 131.84 117.85 132.153 117.85 132.54C117.85 132.927 118.163 133.24 118.55 133.24Z" fill="#040919"/>
<path d="M134.63 105.38C135.016 105.38 135.33 105.067 135.33 104.68C135.33 104.294 135.016 103.98 134.63 103.98C134.243 103.98 133.93 104.294 133.93 104.68C133.93 105.067 134.243 105.38 134.63 105.38Z" fill="#040919"/>
<path d="M126.59 110.02C126.976 110.02 127.29 109.707 127.29 109.32C127.29 108.933 126.976 108.62 126.59 108.62C126.203 108.62 125.89 108.933 125.89 109.32C125.89 109.707 126.203 110.02 126.59 110.02Z" fill="#040919"/>
<path d="M118.55 114.66C118.937 114.66 119.25 114.347 119.25 113.96C119.25 113.573 118.937 113.26 118.55 113.26C118.163 113.26 117.85 113.573 117.85 113.96C117.85 114.347 118.163 114.66 118.55 114.66Z" fill="#040919"/>
<path d="M110.51 119.31C110.897 119.31 111.21 118.997 111.21 118.61C111.21 118.223 110.897 117.91 110.51 117.91C110.123 117.91 109.81 118.223 109.81 118.61C109.81 118.997 110.123 119.31 110.51 119.31Z" fill="#040919"/>
<path d="M134.63 114.66C135.016 114.66 135.33 114.347 135.33 113.96C135.33 113.573 135.016 113.26 134.63 113.26C134.243 113.26 133.93 113.573 133.93 113.96C133.93 114.347 134.243 114.66 134.63 114.66Z" fill="#040919"/>
<path d="M126.59 119.31C126.976 119.31 127.29 118.997 127.29 118.61C127.29 118.223 126.976 117.91 126.59 117.91C126.203 117.91 125.89 118.223 125.89 118.61C125.89 118.997 126.203 119.31 126.59 119.31Z" fill="#040919"/>
<path d="M142.67 110.02C143.057 110.02 143.37 109.707 143.37 109.32C143.37 108.933 143.057 108.62 142.67 108.62C142.283 108.62 141.97 108.933 141.97 109.32C141.97 109.707 142.283 110.02 142.67 110.02Z" fill="#040919"/>
<path d="M118.55 123.95C118.937 123.95 119.25 123.637 119.25 123.25C119.25 122.863 118.937 122.55 118.55 122.55C118.163 122.55 117.85 122.863 117.85 123.25C117.85 123.637 118.163 123.95 118.55 123.95Z" fill="#040919"/>
<path d="M110.51 128.59C110.897 128.59 111.21 128.277 111.21 127.89C111.21 127.503 110.897 127.19 110.51 127.19C110.123 127.19 109.81 127.503 109.81 127.89C109.81 128.277 110.123 128.59 110.51 128.59Z" fill="#040919"/>
<path d="M166.8 105.38C167.187 105.38 167.5 105.067 167.5 104.68C167.5 104.294 167.187 103.98 166.8 103.98C166.413 103.98 166.1 104.294 166.1 104.68C166.1 105.067 166.413 105.38 166.8 105.38Z" fill="#040919"/>
<path d="M150.71 96.0901C151.097 96.0901 151.41 95.7767 151.41 95.3901C151.41 95.0035 151.097 94.6901 150.71 94.6901C150.323 94.6901 150.01 95.0035 150.01 95.3901C150.01 95.7767 150.323 96.0901 150.71 96.0901Z" fill="#040919"/>
<path d="M142.67 100.74C143.057 100.74 143.37 100.427 143.37 100.04C143.37 99.6535 143.057 99.3401 142.67 99.3401C142.283 99.3401 141.97 99.6535 141.97 100.04C141.97 100.427 142.283 100.74 142.67 100.74Z" fill="#040919"/>
<path d="M150.71 105.38C151.097 105.38 151.41 105.067 151.41 104.68C151.41 104.294 151.097 103.98 150.71 103.98C150.323 103.98 150.01 104.294 150.01 104.68C150.01 105.067 150.323 105.38 150.71 105.38Z" fill="#040919"/>
<path d="M158.76 100.74C159.147 100.74 159.46 100.427 159.46 100.04C159.46 99.6535 159.147 99.3401 158.76 99.3401C158.373 99.3401 158.06 99.6535 158.06 100.04C158.06 100.427 158.373 100.74 158.76 100.74Z" fill="#040919"/>
<path d="M174.84 100.74C175.226 100.74 175.54 100.427 175.54 100.04C175.54 99.6535 175.226 99.3401 174.84 99.3401C174.453 99.3401 174.14 99.6535 174.14 100.04C174.14 100.427 174.453 100.74 174.84 100.74Z" fill="#040919"/>
<path d="M158.76 91.45C159.147 91.45 159.46 91.1366 159.46 90.75C159.46 90.3634 159.147 90.05 158.76 90.05C158.373 90.05 158.06 90.3634 158.06 90.75C158.06 91.1366 158.373 91.45 158.76 91.45Z" fill="#040919"/>
<path d="M166.8 96.0901C167.187 96.0901 167.5 95.7767 167.5 95.3901C167.5 95.0035 167.187 94.6901 166.8 94.6901C166.413 94.6901 166.1 95.0035 166.1 95.3901C166.1 95.7767 166.413 96.0901 166.8 96.0901Z" fill="#040919"/>
<path d="M102.47 123.95C102.857 123.95 103.17 123.637 103.17 123.25C103.17 122.863 102.857 122.55 102.47 122.55C102.083 122.55 101.77 122.863 101.77 123.25C101.77 123.637 102.083 123.95 102.47 123.95Z" fill="#040919"/>
</g>
<path d="M233.82 168.89C230.5 166.97 230.49 163.85 233.78 161.93C237.07 160.01 242.43 160.01 245.74 161.93L268.13 174.86C271.45 176.78 271.46 179.9 268.17 181.82C264.88 183.74 259.52 183.74 256.2 181.82L233.81 168.89H233.82Z" fill="#C4BCE5"/>
<path d="M175.35 124.22C172.03 122.3 172.02 119.18 175.31 117.26C178.6 115.34 183.96 115.34 187.27 117.26L209.66 130.19C212.98 132.11 212.99 135.23 209.7 137.15C206.41 139.07 201.05 139.07 197.73 137.15L175.34 124.22H175.35Z" fill="#C4BCE5"/>
<path d="M130.81 157.59C127.49 155.67 127.48 152.55 130.77 150.63C134.06 148.71 139.42 148.71 142.73 150.63L182.35 173.51C185.67 175.43 185.68 178.55 182.39 180.47C179.1 182.39 173.74 182.39 170.42 180.47L130.8 157.59H130.81Z" fill="#C4BCE5"/>
<path d="M71.95 176.77C68.63 174.85 68.6199 171.73 71.9099 169.81C75.1999 167.89 80.56 167.89 83.87 169.81L106.26 182.74C109.58 184.66 109.59 187.78 106.3 189.7C103.01 191.62 97.6499 191.62 94.3299 189.7L71.94 176.77H71.95Z" fill="#C4BCE5"/>
<path d="M160.86 210.89C157.54 208.97 157.53 205.85 160.82 203.93C164.11 202.01 169.47 202.01 172.78 203.93L195.17 216.86C198.49 218.78 198.5 221.9 195.21 223.82C191.92 225.74 186.56 225.74 183.24 223.82L160.85 210.89H160.86Z" fill="#C4BCE5"/>
<path d="M189.8 115.8C192.16 117.17 193.33 118.96 193.33 120.75C193.33 122.54 192.17 124.3 189.85 125.65C185.19 128.37 177.6 128.37 172.91 125.65C170.55 124.28 169.38 122.49 169.38 120.7C169.38 118.91 170.54 117.15 172.86 115.79C177.52 113.07 185.1 113.07 189.79 115.79L189.8 115.8Z" fill="#925FFF"/>
<path d="M175.39 85.79C178.71 83.87 184.06 83.87 187.35 85.79C189 86.75 189.82 88.01 189.81 89.27V120.74C189.81 122 188.97 123.26 187.31 124.22C183.99 126.14 178.64 126.14 175.34 124.22C173.69 123.26 172.88 122 172.88 120.74V89.27C172.88 88.01 173.72 86.75 175.38 85.79H175.39Z" fill="#C4BCE5"/>
<path d="M187.36 85.79C190.68 87.71 190.69 90.83 187.4 92.75C184.11 94.67 178.75 94.67 175.43 92.75C172.11 90.83 172.1 87.71 175.39 85.79C178.68 83.87 184.04 83.87 187.35 85.79H187.36Z" fill="#925FFF"/>
<path d="M172.93 89.2699C172.93 90.5299 173.77 91.7899 175.43 92.7499C177.07 93.6999 179.21 94.1799 181.36 94.1899V125.66C179.19 125.66 177.01 125.18 175.36 124.22C173.71 123.26 172.9 122 172.9 120.74V89.2699H172.94H172.93Z" fill="white"/>
<path d="M175.39 53.64C178.71 51.72 184.06 51.72 187.35 53.64C189 54.6 189.82 55.86 189.81 57.12V89.2699C189.81 90.5299 188.97 91.79 187.31 92.75C183.99 94.67 178.64 94.67 175.34 92.75C173.69 91.79 172.88 90.5299 172.88 89.2699V57.12C172.88 55.86 173.72 54.6 175.38 53.64H175.39Z" fill="#040919"/>
<path d="M187.36 53.64C190.68 55.56 190.69 58.6799 187.4 60.5999C184.11 62.5199 178.75 62.5199 175.43 60.5999C172.11 58.6799 172.1 55.56 175.39 53.64C178.68 51.72 184.04 51.72 187.35 53.64H187.36Z" fill="#925FFF"/>
<path d="M172.93 57.12C172.93 58.38 173.77 59.64 175.43 60.6C177.07 61.55 179.21 62.03 181.36 62.04V94.2C179.19 94.2 177.01 93.72 175.36 92.76C173.71 91.8 172.9 90.54 172.9 89.28V57.12H172.94H172.93Z" fill="#5631E8"/>
<path d="M216.71 162.87L166.25 157.33" stroke="#925FFF" stroke-linecap="round" stroke-linejoin="round"/>
<path d="M28.26 145.05L78.34 173.62L111.46 162.57" stroke="#925FFF" stroke-linecap="round" stroke-linejoin="round"/>
<path d="M256.48 175.02L274.69 185.53" stroke="#925FFF" stroke-linecap="round" stroke-linejoin="round"/>
<path d="M256.37 155.74C260.99 158.42 263.3 161.93 263.3 165.44C263.3 168.95 261.03 172.4 256.48 175.05C247.34 180.38 232.48 180.39 223.28 175.05C218.66 172.37 216.35 168.86 216.35 165.36C216.35 161.86 218.63 158.4 223.18 155.74C232.31 150.41 247.17 150.41 256.37 155.74Z" stroke="#925FFF" stroke-linecap="round" stroke-linejoin="round"/>
<path d="M157.45 142.05C163.21 145.39 166.09 149.77 166.09 154.15C166.09 158.53 163.26 162.83 157.58 166.14C146.18 172.79 127.64 172.8 116.17 166.14C110.41 162.8 107.53 158.42 107.53 154.05C107.53 149.68 110.37 145.37 116.05 142.05C127.44 135.4 145.97 135.4 157.45 142.05Z" stroke="#925FFF" stroke-linecap="round" stroke-linejoin="round"/>
<path d="M145.23 149.19C147.58 150.55 148.75 152.34 148.75 154.12C148.75 155.9 147.59 157.66 145.28 159C140.63 161.71 133.08 161.71 128.4 159C126.05 157.64 124.88 155.85 124.88 154.07C124.88 152.29 126.04 150.53 128.35 149.18C132.99 146.47 140.55 146.47 145.22 149.18L145.23 149.19Z" fill="#925FFF"/>
<path d="M130.85 62.48C134.17 60.56 139.52 60.56 142.81 62.48C144.46 63.44 145.28 64.7 145.27 65.96V154.11C145.27 155.37 144.43 156.63 142.77 157.59C139.45 159.51 134.1 159.51 130.8 157.59C129.15 156.63 128.34 155.37 128.34 154.11V65.96C128.34 64.7 129.18 63.44 130.84 62.48H130.85Z" fill="#C4BCE5"/>
<path d="M142.82 62.48C146.14 64.4 146.15 67.52 142.86 69.44C139.57 71.36 134.21 71.36 130.89 69.44C127.57 67.52 127.56 64.4 130.85 62.48C134.14 60.56 139.5 60.56 142.81 62.48H142.82Z" fill="#D7D0F5"/>
<path d="M128.39 65.96C128.39 67.22 129.23 68.48 130.89 69.44C132.53 70.39 134.67 70.87 136.82 70.88V159.04C134.65 159.04 132.47 158.56 130.82 157.6C129.17 156.64 128.36 155.38 128.36 154.12V65.96H128.4H128.39Z" fill="white"/>
<path d="M130.85 1.44C134.17 -0.48 139.52 -0.48 142.81 1.44C144.46 2.4 145.28 3.66 145.27 4.92V46.08C145.27 47.34 144.43 48.6 142.77 49.56C139.45 51.48 134.1 51.48 130.8 49.56C129.15 48.6 128.34 47.34 128.34 46.08V4.92C128.34 3.66 129.18 2.4 130.84 1.44H130.85Z" fill="#040919"/>
<path d="M142.82 1.44C146.14 3.36 146.15 6.48 142.86 8.4C139.57 10.32 134.21 10.32 130.89 8.4C127.57 6.48 127.56 3.36 130.85 1.44C134.14 -0.48 139.5 -0.48 142.81 1.44H142.82Z" fill="#925FFF"/>
<path d="M128.39 4.92004C128.39 6.18004 129.23 7.44004 130.89 8.40004C132.53 9.35004 134.67 9.83004 136.82 9.84004V51C134.65 51 132.47 50.52 130.82 49.56C129.17 48.6 128.36 47.34 128.36 46.08V4.92004H128.4H128.39Z" fill="#5631E8"/>
<path d="M175.42 202.4C177.81 203.79 179 205.6 179 207.42C179 209.24 177.82 211.02 175.47 212.39C170.74 215.15 163.05 215.15 158.3 212.39C155.91 211.01 154.72 209.19 154.72 207.37C154.72 205.55 155.9 203.77 158.25 202.39C162.97 199.63 170.66 199.63 175.42 202.39V202.4Z" fill="#925FFF"/>
<path d="M160.89 143.29C164.21 141.37 169.56 141.37 172.85 143.29C174.5 144.25 175.32 145.51 175.31 146.77V207.41C175.31 208.67 174.47 209.93 172.81 210.89C169.49 212.81 164.14 212.81 160.84 210.89C159.19 209.93 158.38 208.67 158.38 207.41V146.77C158.38 145.51 159.22 144.25 160.88 143.29H160.89Z" fill="#C4BCE5"/>
<path d="M172.86 143.29C176.18 145.21 176.19 148.33 172.9 150.25C169.61 152.17 164.25 152.17 160.93 150.25C157.61 148.33 157.6 145.21 160.89 143.29C164.18 141.37 169.54 141.37 172.85 143.29H172.86Z" fill="#D7D0F5"/>
<path d="M158.43 146.77C158.43 148.03 159.27 149.29 160.93 150.25C162.57 151.2 164.71 151.68 166.86 151.69V212.33C164.69 212.33 162.51 211.85 160.86 210.89C159.21 209.93 158.4 208.67 158.4 207.41V146.77H158.44H158.43Z" fill="white"/>
<path d="M160.89 114.71C164.21 112.79 169.56 112.79 172.85 114.71C174.5 115.67 175.32 116.93 175.31 118.19V140.34C175.31 141.6 174.47 142.86 172.81 143.82C169.49 145.74 164.14 145.74 160.84 143.82C159.19 142.86 158.38 141.6 158.38 140.34V118.19C158.38 116.93 159.22 115.67 160.88 114.71H160.89Z" fill="#040919"/>
<path d="M172.86 114.71C176.18 116.63 176.19 119.75 172.9 121.67C169.61 123.59 164.25 123.59 160.93 121.67C157.61 119.75 157.6 116.63 160.89 114.71C164.18 112.79 169.54 112.79 172.85 114.71H172.86Z" fill="#925FFF"/>
<path d="M158.43 118.19C158.43 119.45 159.27 120.71 160.93 121.67C162.57 122.62 164.71 123.1 166.86 123.11V145.27C164.69 145.27 162.51 144.79 160.86 143.83C159.21 142.87 158.4 141.61 158.4 140.35V118.2H158.44L158.43 118.19Z" fill="#5631E8"/>
<path d="M248.43 160.37C250.83 161.76 252.03 163.59 252.03 165.41C252.03 167.23 250.85 169.03 248.48 170.41C243.73 173.18 235.99 173.19 231.21 170.41C228.81 169.02 227.61 167.19 227.61 165.37C227.61 163.55 228.79 161.75 231.16 160.37C235.91 157.6 243.64 157.6 248.43 160.37Z" fill="#925FFF"/>
<path d="M233.86 101.29C237.18 99.37 242.53 99.37 245.82 101.29C247.47 102.25 248.29 103.51 248.28 104.77V165.41C248.28 166.67 247.44 167.93 245.78 168.89C242.46 170.81 237.11 170.81 233.81 168.89C232.16 167.93 231.35 166.67 231.35 165.41V104.77C231.35 103.51 232.19 102.25 233.85 101.29H233.86Z" fill="#C4BCE5"/>
<path d="M245.82 101.29C249.14 103.21 249.15 106.33 245.86 108.25C242.57 110.17 237.21 110.17 233.89 108.25C230.57 106.33 230.56 103.21 233.85 101.29C237.14 99.37 242.5 99.37 245.81 101.29H245.82Z" fill="#D7D0F5"/>
<path d="M231.4 104.77C231.4 106.03 232.24 107.29 233.9 108.25C235.54 109.2 237.68 109.68 239.83 109.69V170.33C237.66 170.33 235.48 169.85 233.83 168.89C232.18 167.93 231.37 166.67 231.37 165.41V104.77H231.41H231.4Z" fill="white"/>
<path d="M233.91 69.55C237.23 67.63 242.58 67.63 245.87 69.55C247.52 70.51 248.34 71.77 248.33 73.03V85.18C248.33 86.44 247.49 87.7 245.83 88.66C242.51 90.58 237.16 90.58 233.86 88.66C232.21 87.7 231.4 86.44 231.4 85.18V73.03C231.4 71.77 232.24 70.51 233.9 69.55H233.91Z" fill="#040919"/>
<path d="M245.87 69.55C249.19 71.47 249.2 74.59 245.91 76.51C242.62 78.43 237.26 78.43 233.94 76.51C230.62 74.59 230.61 71.47 233.9 69.55C237.19 67.63 242.55 67.63 245.86 69.55H245.87Z" fill="#925FFF"/>
<path d="M231.44 73.03C231.44 74.29 232.28 75.55 233.94 76.51C235.58 77.46 237.72 77.94 239.87 77.95V90.11C237.7 90.11 235.52 89.63 233.87 88.67C232.22 87.71 231.41 86.45 231.41 85.19V73.04H231.45L231.44 73.03Z" fill="#5631E8"/>
<path d="M86.35 168.38C88.69 169.74 89.86 171.52 89.86 173.3C89.86 175.08 88.7101 176.83 86.4001 178.17C81.7701 180.87 74.2301 180.88 69.5701 178.17C67.2301 176.81 66.0601 175.03 66.0601 173.25C66.0601 171.47 67.2101 169.72 69.5201 168.37C74.1501 165.67 81.68 165.67 86.35 168.37V168.38Z" fill="#925FFF"/>
<path d="M71.99 143.67C75.31 141.75 80.66 141.75 83.95 143.67C85.6 144.63 86.42 145.89 86.41 147.15V173.28C86.41 174.54 85.57 175.8 83.91 176.76C80.59 178.68 75.24 178.68 71.94 176.76C70.29 175.8 69.48 174.54 69.48 173.28V147.15C69.48 145.89 70.32 144.63 71.98 143.67H71.99Z" fill="#C4BCE5"/>
<path d="M83.96 143.67C87.28 145.59 87.29 148.71 84 150.63C80.71 152.55 75.3501 152.55 72.0301 150.63C68.7101 148.71 68.7 145.59 71.99 143.67C75.28 141.75 80.64 141.75 83.95 143.67H83.96Z" fill="#925FFF"/>
<path d="M69.53 147.16C69.53 148.42 70.37 149.68 72.03 150.64C73.67 151.59 75.81 152.07 77.96 152.08V178.21C75.79 178.21 73.61 177.73 71.96 176.77C70.31 175.81 69.5 174.55 69.5 173.29V147.16H69.54H69.53Z" fill="white"/>
<path d="M71.99 112.52C75.31 110.6 80.66 110.6 83.95 112.52C85.6 113.48 86.42 114.74 86.41 116V147.15C86.41 148.41 85.57 149.67 83.91 150.63C80.59 152.55 75.24 152.55 71.94 150.63C70.29 149.67 69.48 148.41 69.48 147.15V116C69.48 114.74 70.32 113.48 71.98 112.52H71.99Z" fill="#040919"/>
<path d="M83.96 112.52C87.28 114.44 87.29 117.56 84 119.48C80.71 121.4 75.3501 121.4 72.0301 119.48C68.7101 117.56 68.7 114.44 71.99 112.52C75.28 110.6 80.64 110.6 83.95 112.52H83.96Z" fill="#925FFF"/>
<path d="M69.53 116C69.53 117.26 70.37 118.52 72.03 119.48C73.67 120.43 75.81 120.91 77.96 120.92V152.08C75.79 152.08 73.61 151.6 71.96 150.64C70.31 149.68 69.5 148.42 69.5 147.16V116.01H69.54L69.53 116Z" fill="#5631E8"/>
<path d="M158.76 252.47V266.07L317.02 174.69V161.09L158.76 252.47Z" fill="#040919"/>
<path d="M158.76 252.47V266.07L0.47998 174.69V161.09L158.76 252.47Z" fill="#925FFF"/>
<path d="M410.43 391.88L346.57 355.01L334.79 361.81L410.43 405.48L486.07 361.81L474.3 355.01L410.43 391.88Z" fill="#C4BCE5"/>
<path d="M410.43 304.54L334.79 348.21L410.43 391.88L486.07 348.21L410.43 304.54Z" fill="url(#paint2_linear_27_1102)"/>
<path d="M410.43 327.19L374.01 348.21L410.43 369.24L446.86 348.21L410.43 327.19Z" fill="#C4BCE5"/>
<path d="M410.43 391.88L486.07 348.21" stroke="#645D8C" stroke-linecap="round" stroke-linejoin="round"/>
<path d="M334.79 348.21L410.43 391.88" stroke="#645D8C" stroke-linecap="round" stroke-linejoin="round"/>
<g opacity="0.25">
<path d="M410.43 344.27C410.817 344.27 411.13 343.957 411.13 343.57C411.13 343.184 410.817 342.87 410.43 342.87C410.043 342.87 409.73 343.184 409.73 343.57C409.73 343.957 410.043 344.27 410.43 344.27Z" fill="#040919"/>
<path d="M418.48 348.91C418.867 348.91 419.18 348.597 419.18 348.21C419.18 347.823 418.867 347.51 418.48 347.51C418.093 347.51 417.78 347.823 417.78 348.21C417.78 348.597 418.093 348.91 418.48 348.91Z" fill="#040919"/>
<path d="M410.43 353.56C410.817 353.56 411.13 353.247 411.13 352.86C411.13 352.474 410.817 352.16 410.43 352.16C410.043 352.16 409.73 352.474 409.73 352.86C409.73 353.247 410.043 353.56 410.43 353.56Z" fill="#040919"/>
<path d="M426.52 353.56C426.906 353.56 427.22 353.247 427.22 352.86C427.22 352.474 426.906 352.16 426.52 352.16C426.133 352.16 425.82 352.474 425.82 352.86C425.82 353.247 426.133 353.56 426.52 353.56Z" fill="#040919"/>
<path d="M418.48 358.2C418.867 358.2 419.18 357.887 419.18 357.5C419.18 357.113 418.867 356.8 418.48 356.8C418.093 356.8 417.78 357.113 417.78 357.5C417.78 357.887 418.093 358.2 418.48 358.2Z" fill="#040919"/>
<path d="M410.43 362.84C410.817 362.84 411.13 362.527 411.13 362.14C411.13 361.753 410.817 361.44 410.43 361.44C410.043 361.44 409.73 361.753 409.73 362.14C409.73 362.527 410.043 362.84 410.43 362.84Z" fill="#040919"/>
<path d="M434.56 358.2C434.947 358.2 435.26 357.887 435.26 357.5C435.26 357.113 434.947 356.8 434.56 356.8C434.173 356.8 433.86 357.113 433.86 357.5C433.86 357.887 434.173 358.2 434.56 358.2Z" fill="#040919"/>
<path d="M426.52 362.84C426.906 362.84 427.22 362.527 427.22 362.14C427.22 361.753 426.906 361.44 426.52 361.44C426.133 361.44 425.82 361.753 425.82 362.14C425.82 362.527 426.133 362.84 426.52 362.84Z" fill="#040919"/>
<path d="M418.48 367.49C418.867 367.49 419.18 367.177 419.18 366.79C419.18 366.404 418.867 366.09 418.48 366.09C418.093 366.09 417.78 366.404 417.78 366.79C417.78 367.177 418.093 367.49 418.48 367.49Z" fill="#040919"/>
<path d="M410.43 372.13C410.817 372.13 411.13 371.817 411.13 371.43C411.13 371.043 410.817 370.73 410.43 370.73C410.043 370.73 409.73 371.043 409.73 371.43C409.73 371.817 410.043 372.13 410.43 372.13Z" fill="#040919"/>
<path d="M434.56 367.49C434.947 367.49 435.26 367.177 435.26 366.79C435.26 366.404 434.947 366.09 434.56 366.09C434.173 366.09 433.86 366.404 433.86 366.79C433.86 367.177 434.173 367.49 434.56 367.49Z" fill="#040919"/>
<path d="M426.52 372.13C426.906 372.13 427.22 371.817 427.22 371.43C427.22 371.043 426.906 370.73 426.52 370.73C426.133 370.73 425.82 371.043 425.82 371.43C425.82 371.817 426.133 372.13 426.52 372.13Z" fill="#040919"/>
<path d="M442.6 362.84C442.986 362.84 443.3 362.527 443.3 362.14C443.3 361.753 442.986 361.44 442.6 361.44C442.213 361.44 441.9 361.753 441.9 362.14C441.9 362.527 442.213 362.84 442.6 362.84Z" fill="#040919"/>
<path d="M418.48 376.77C418.867 376.77 419.18 376.457 419.18 376.07C419.18 375.684 418.867 375.37 418.48 375.37C418.093 375.37 417.78 375.684 417.78 376.07C417.78 376.457 418.093 376.77 418.48 376.77Z" fill="#040919"/>
<path d="M410.43 381.41C410.817 381.41 411.13 381.097 411.13 380.71C411.13 380.323 410.817 380.01 410.43 380.01C410.043 380.01 409.73 380.323 409.73 380.71C409.73 381.097 410.043 381.41 410.43 381.41Z" fill="#040919"/>
<path d="M402.39 348.91C402.777 348.91 403.09 348.597 403.09 348.21C403.09 347.823 402.777 347.51 402.39 347.51C402.003 347.51 401.69 347.823 401.69 348.21C401.69 348.597 402.003 348.91 402.39 348.91Z" fill="#040919"/>
<path d="M426.52 334.99C426.906 334.99 427.22 334.677 427.22 334.29C427.22 333.904 426.906 333.59 426.52 333.59C426.133 333.59 425.82 333.904 425.82 334.29C425.82 334.677 426.133 334.99 426.52 334.99Z" fill="#040919"/>
<path d="M434.56 339.63C434.947 339.63 435.26 339.317 435.26 338.93C435.26 338.543 434.947 338.23 434.56 338.23C434.173 338.23 433.86 338.543 433.86 338.93C433.86 339.317 434.173 339.63 434.56 339.63Z" fill="#040919"/>
<path d="M426.52 344.27C426.906 344.27 427.22 343.957 427.22 343.57C427.22 343.184 426.906 342.87 426.52 342.87C426.133 342.87 425.82 343.184 425.82 343.57C425.82 343.957 426.133 344.27 426.52 344.27Z" fill="#040919"/>
<path d="M442.6 344.27C442.986 344.27 443.3 343.957 443.3 343.57C443.3 343.184 442.986 342.87 442.6 342.87C442.213 342.87 441.9 343.184 441.9 343.57C441.9 343.957 442.213 344.27 442.6 344.27Z" fill="#040919"/>
<path d="M434.56 348.91C434.947 348.91 435.26 348.597 435.26 348.21C435.26 347.823 434.947 347.51 434.56 347.51C434.173 347.51 433.86 347.823 433.86 348.21C433.86 348.597 434.173 348.91 434.56 348.91Z" fill="#040919"/>
<path d="M450.64 348.91C451.027 348.91 451.34 348.597 451.34 348.21C451.34 347.823 451.027 347.51 450.64 347.51C450.253 347.51 449.94 347.823 449.94 348.21C449.94 348.597 450.253 348.91 450.64 348.91Z" fill="#040919"/>
<path d="M442.6 353.56C442.986 353.56 443.3 353.247 443.3 352.86C443.3 352.474 442.986 352.16 442.6 352.16C442.213 352.16 441.9 352.474 441.9 352.86C441.9 353.247 442.213 353.56 442.6 353.56Z" fill="#040919"/>
<path d="M450.64 358.2C451.027 358.2 451.34 357.887 451.34 357.5C451.34 357.113 451.027 356.8 450.64 356.8C450.253 356.8 449.94 357.113 449.94 357.5C449.94 357.887 450.253 358.2 450.64 358.2Z" fill="#040919"/>
<path d="M458.68 353.56C459.067 353.56 459.38 353.247 459.38 352.86C459.38 352.474 459.067 352.16 458.68 352.16C458.293 352.16 457.98 352.474 457.98 352.86C457.98 353.247 458.293 353.56 458.68 353.56Z" fill="#040919"/>
<path d="M418.48 339.63C418.867 339.63 419.18 339.317 419.18 338.93C419.18 338.543 418.867 338.23 418.48 338.23C418.093 338.23 417.78 338.543 417.78 338.93C417.78 339.317 418.093 339.63 418.48 339.63Z" fill="#040919"/>
<path d="M442.6 334.99C442.986 334.99 443.3 334.677 443.3 334.29C443.3 333.904 442.986 333.59 442.6 333.59C442.213 333.59 441.9 333.904 441.9 334.29C441.9 334.677 442.213 334.99 442.6 334.99Z" fill="#040919"/>
<path d="M450.64 339.63C451.027 339.63 451.34 339.317 451.34 338.93C451.34 338.543 451.027 338.23 450.64 338.23C450.253 338.23 449.94 338.543 449.94 338.93C449.94 339.317 450.253 339.63 450.64 339.63Z" fill="#040919"/>
<path d="M458.68 344.27C459.067 344.27 459.38 343.957 459.38 343.57C459.38 343.184 459.067 342.87 458.68 342.87C458.293 342.87 457.98 343.184 457.98 343.57C457.98 343.957 458.293 344.27 458.68 344.27Z" fill="#040919"/>
<path d="M466.72 348.91C467.107 348.91 467.42 348.597 467.42 348.21C467.42 347.823 467.107 347.51 466.72 347.51C466.333 347.51 466.02 347.823 466.02 348.21C466.02 348.597 466.333 348.91 466.72 348.91Z" fill="#040919"/>
<path d="M434.56 330.34C434.947 330.34 435.26 330.027 435.26 329.64C435.26 329.253 434.947 328.94 434.56 328.94C434.173 328.94 433.86 329.253 433.86 329.64C433.86 330.027 434.173 330.34 434.56 330.34Z" fill="#040919"/>
<path d="M394.35 353.56C394.736 353.56 395.05 353.247 395.05 352.86C395.05 352.474 394.736 352.16 394.35 352.16C393.963 352.16 393.65 352.474 393.65 352.86C393.65 353.247 393.963 353.56 394.35 353.56Z" fill="#040919"/>
<path d="M402.39 358.2C402.777 358.2 403.09 357.887 403.09 357.5C403.09 357.113 402.777 356.8 402.39 356.8C402.003 356.8 401.69 357.113 401.69 357.5C401.69 357.887 402.003 358.2 402.39 358.2Z" fill="#040919"/>
<path d="M386.31 358.2C386.697 358.2 387.01 357.887 387.01 357.5C387.01 357.113 386.697 356.8 386.31 356.8C385.923 356.8 385.61 357.113 385.61 357.5C385.61 357.887 385.923 358.2 386.31 358.2Z" fill="#040919"/>
<path d="M394.35 362.84C394.736 362.84 395.05 362.527 395.05 362.14C395.05 361.753 394.736 361.44 394.35 361.44C393.963 361.44 393.65 361.753 393.65 362.14C393.65 362.527 393.963 362.84 394.35 362.84Z" fill="#040919"/>
<path d="M402.39 367.49C402.777 367.49 403.09 367.177 403.09 366.79C403.09 366.404 402.777 366.09 402.39 366.09C402.003 366.09 401.69 366.404 401.69 366.79C401.69 367.177 402.003 367.49 402.39 367.49Z" fill="#040919"/>
<path d="M386.31 367.49C386.697 367.49 387.01 367.177 387.01 366.79C387.01 366.404 386.697 366.09 386.31 366.09C385.923 366.09 385.61 366.404 385.61 366.79C385.61 367.177 385.923 367.49 386.31 367.49Z" fill="#040919"/>
<path d="M394.35 372.13C394.736 372.13 395.05 371.817 395.05 371.43C395.05 371.043 394.736 370.73 394.35 370.73C393.963 370.73 393.65 371.043 393.65 371.43C393.65 371.817 393.963 372.13 394.35 372.13Z" fill="#040919"/>
<path d="M378.27 362.84C378.656 362.84 378.97 362.527 378.97 362.14C378.97 361.753 378.656 361.44 378.27 361.44C377.883 361.44 377.57 361.753 377.57 362.14C377.57 362.527 377.883 362.84 378.27 362.84Z" fill="#040919"/>
<path d="M402.39 376.77C402.777 376.77 403.09 376.457 403.09 376.07C403.09 375.684 402.777 375.37 402.39 375.37C402.003 375.37 401.69 375.684 401.69 376.07C401.69 376.457 402.003 376.77 402.39 376.77Z" fill="#040919"/>
<path d="M386.31 348.91C386.697 348.91 387.01 348.597 387.01 348.21C387.01 347.823 386.697 347.51 386.31 347.51C385.923 347.51 385.61 347.823 385.61 348.21C385.61 348.597 385.923 348.91 386.31 348.91Z" fill="#040919"/>
<path d="M378.27 353.56C378.656 353.56 378.97 353.247 378.97 352.86C378.97 352.474 378.656 352.16 378.27 352.16C377.883 352.16 377.57 352.474 377.57 352.86C377.57 353.247 377.883 353.56 378.27 353.56Z" fill="#040919"/>
<path d="M402.39 339.63C402.777 339.63 403.09 339.317 403.09 338.93C403.09 338.543 402.777 338.23 402.39 338.23C402.003 338.23 401.69 338.543 401.69 338.93C401.69 339.317 402.003 339.63 402.39 339.63Z" fill="#040919"/>
<path d="M394.35 344.27C394.736 344.27 395.05 343.957 395.05 343.57C395.05 343.184 394.736 342.87 394.35 342.87C393.963 342.87 393.65 343.184 393.65 343.57C393.65 343.957 393.963 344.27 394.35 344.27Z" fill="#040919"/>
<path d="M410.43 334.99C410.817 334.99 411.13 334.677 411.13 334.29C411.13 333.904 410.817 333.59 410.43 333.59C410.043 333.59 409.73 333.904 409.73 334.29C409.73 334.677 410.043 334.99 410.43 334.99Z" fill="#040919"/>
<path d="M370.23 358.2C370.617 358.2 370.93 357.887 370.93 357.5C370.93 357.113 370.617 356.8 370.23 356.8C369.843 356.8 369.53 357.113 369.53 357.5C369.53 357.887 369.843 358.2 370.23 358.2Z" fill="#040919"/>
<path d="M386.31 330.34C386.697 330.34 387.01 330.027 387.01 329.64C387.01 329.253 386.697 328.94 386.31 328.94C385.923 328.94 385.61 329.253 385.61 329.64C385.61 330.027 385.923 330.34 386.31 330.34Z" fill="#040919"/>
<path d="M378.27 334.99C378.656 334.99 378.97 334.677 378.97 334.29C378.97 333.904 378.656 333.59 378.27 333.59C377.883 333.59 377.57 333.904 377.57 334.29C377.57 334.677 377.883 334.99 378.27 334.99Z" fill="#040919"/>
<path d="M370.23 339.63C370.617 339.63 370.93 339.317 370.93 338.93C370.93 338.543 370.617 338.23 370.23 338.23C369.843 338.23 369.53 338.543 369.53 338.93C369.53 339.317 369.843 339.63 370.23 339.63Z" fill="#040919"/>
<path d="M362.19 344.27C362.577 344.27 362.89 343.957 362.89 343.57C362.89 343.184 362.577 342.87 362.19 342.87C361.803 342.87 361.49 343.184 361.49 343.57C361.49 343.957 361.803 344.27 362.19 344.27Z" fill="#040919"/>
<path d="M386.31 339.63C386.697 339.63 387.01 339.317 387.01 338.93C387.01 338.543 386.697 338.23 386.31 338.23C385.923 338.23 385.61 338.543 385.61 338.93C385.61 339.317 385.923 339.63 386.31 339.63Z" fill="#040919"/>
<path d="M378.27 344.27C378.656 344.27 378.97 343.957 378.97 343.57C378.97 343.184 378.656 342.87 378.27 342.87C377.883 342.87 377.57 343.184 377.57 343.57C377.57 343.957 377.883 344.27 378.27 344.27Z" fill="#040919"/>
<path d="M394.35 334.99C394.736 334.99 395.05 334.677 395.05 334.29C395.05 333.904 394.736 333.59 394.35 333.59C393.963 333.59 393.65 333.904 393.65 334.29C393.65 334.677 393.963 334.99 394.35 334.99Z" fill="#040919"/>
<path d="M370.23 348.91C370.617 348.91 370.93 348.597 370.93 348.21C370.93 347.823 370.617 347.51 370.23 347.51C369.843 347.51 369.53 347.823 369.53 348.21C369.53 348.597 369.843 348.91 370.23 348.91Z" fill="#040919"/>
<path d="M362.19 353.56C362.577 353.56 362.89 353.247 362.89 352.86C362.89 352.474 362.577 352.16 362.19 352.16C361.803 352.16 361.49 352.474 361.49 352.86C361.49 353.247 361.803 353.56 362.19 353.56Z" fill="#040919"/>
<path d="M418.48 330.34C418.867 330.34 419.18 330.027 419.18 329.64C419.18 329.253 418.867 328.94 418.48 328.94C418.093 328.94 417.78 329.253 417.78 329.64C417.78 330.027 418.093 330.34 418.48 330.34Z" fill="#040919"/>
<path d="M402.39 321.06C402.777 321.06 403.09 320.747 403.09 320.36C403.09 319.974 402.777 319.66 402.39 319.66C402.003 319.66 401.69 319.974 401.69 320.36C401.69 320.747 402.003 321.06 402.39 321.06Z" fill="#040919"/>
<path d="M394.35 325.7C394.736 325.7 395.05 325.387 395.05 325C395.05 324.613 394.736 324.3 394.35 324.3C393.963 324.3 393.65 324.613 393.65 325C393.65 325.387 393.963 325.7 394.35 325.7Z" fill="#040919"/>
<path d="M402.39 330.34C402.777 330.34 403.09 330.027 403.09 329.64C403.09 329.253 402.777 328.94 402.39 328.94C402.003 328.94 401.69 329.253 401.69 329.64C401.69 330.027 402.003 330.34 402.39 330.34Z" fill="#040919"/>
<path d="M410.43 325.7C410.817 325.7 411.13 325.387 411.13 325C411.13 324.613 410.817 324.3 410.43 324.3C410.043 324.3 409.73 324.613 409.73 325C409.73 325.387 410.043 325.7 410.43 325.7Z" fill="#040919"/>
<path d="M426.52 325.7C426.906 325.7 427.22 325.387 427.22 325C427.22 324.613 426.906 324.3 426.52 324.3C426.133 324.3 425.82 324.613 425.82 325C425.82 325.387 426.133 325.7 426.52 325.7Z" fill="#040919"/>
<path d="M410.43 316.42C410.817 316.42 411.13 316.107 411.13 315.72C411.13 315.333 410.817 315.02 410.43 315.02C410.043 315.02 409.73 315.333 409.73 315.72C409.73 316.107 410.043 316.42 410.43 316.42Z" fill="#040919"/>
<path d="M418.48 321.06C418.867 321.06 419.18 320.747 419.18 320.36C419.18 319.974 418.867 319.66 418.48 319.66C418.093 319.66 417.78 319.974 417.78 320.36C417.78 320.747 418.093 321.06 418.48 321.06Z" fill="#040919"/>
<path d="M354.14 348.91C354.527 348.91 354.84 348.597 354.84 348.21C354.84 347.823 354.527 347.51 354.14 347.51C353.753 347.51 353.44 347.823 353.44 348.21C353.44 348.597 353.753 348.91 354.14 348.91Z" fill="#040919"/>
</g>
<path d="M410.43 311.77L374.01 332.8L410.43 353.83L446.86 332.8L410.43 311.77Z" fill="#040919"/>
<path d="M374.01 332.8L410.43 353.83L446.86 332.8" stroke="#925FFF" stroke-linecap="round" stroke-linejoin="round"/>
<path d="M410.43 300.96L374.01 321.99L410.43 343.02L446.86 321.99L410.43 300.96Z" fill="#5631E8"/>
<path d="M374.01 321.99L410.43 343.02L446.86 321.99" stroke="#925FFF" stroke-linecap="round" stroke-linejoin="round"/>
<path d="M410.43 290.16L374.01 311.18L410.43 332.21L446.86 311.18L410.43 290.16Z" fill="#D7D0F5"/>
<path d="M374.01 311.18L410.43 332.21L446.86 311.18" stroke="#925FFF" stroke-linecap="round" stroke-linejoin="round"/>
<path d="M410.43 279.35L374.01 300.38L410.43 321.41L446.86 300.38L410.43 279.35Z" fill="url(#paint3_linear_27_1102)"/>
<path d="M446.86 300.38L410.43 279.35L374.01 300.38" fill="url(#paint4_linear_27_1102)"/>
<path d="M446.86 300.38L410.43 279.35L374.01 300.38" stroke="white" stroke-linecap="round" stroke-linejoin="round"/>
<path d="M374.01 300.38L410.43 321.41L446.86 300.38" stroke="#925FFF" stroke-linecap="round" stroke-linejoin="round"/>
<path d="M403.62 308.61L418.61 299.95" stroke="#925FFF" stroke-linecap="round" stroke-linejoin="round"/>
<path d="M398.63 305.73L419.7 293.56" stroke="#925FFF" stroke-linecap="round" stroke-linejoin="round"/>
<path d="M393.65 302.85L414.72 290.69" stroke="#925FFF" stroke-linecap="round" stroke-linejoin="round"/>
<path d="M388.66 299.97L409.73 287.81" stroke="#925FFF" stroke-linecap="round" stroke-linejoin="round"/>
<path d="M274.69 185.53L276.32 186.47C279.5 188.31 281.46 191.7 281.46 195.37V272.92C281.46 276.61 283.43 280.01 286.63 281.84L368.44 328.66" stroke="#925FFF" stroke-linecap="round" stroke-linejoin="round"/>
<path d="M311.64 463.202L236 419.532L311.64 375.862L387.28 419.532L311.64 463.202Z" fill="url(#paint5_linear_27_1102)"/>
<path d="M311.64 384.832L243.77 424.022L236 419.532L311.64 375.862L387.28 419.532L379.51 424.022L311.64 384.832Z" fill="#C4BCE5"/>
<path d="M311.64 393.852L251.58 428.532L243.77 424.022L311.64 384.832L379.51 424.022L371.7 428.532L311.64 393.852Z" fill="#040919"/>
<path d="M311.64 375.862V384.832L379.51 424.022L387.28 419.532L311.64 375.862Z" fill="#040919"/>
<path d="M311.64 384.832L379.51 424.022" stroke="#5631E8" stroke-linecap="round" stroke-linejoin="round"/>
<path d="M315.31 441.762H323.29V449.742H315.31V441.762Z" fill="#040919"/>
<path d="M291.36 441.762V449.742H288.33L283.38 446.892V441.762H291.36Z" fill="#040919"/>
<path d="M307.33 433.782H315.31V441.762H307.33V433.782Z" fill="#040919"/>
<path d="M323.29 409.842H331.27V417.822H323.29V409.842Z" fill="#040919"/>
<path d="M323.29 417.822H331.27V425.802H323.29V417.822Z" fill="#040919"/>
<path d="M259.28 391.922L320.12 356.792C322.52 355.412 326.44 355.412 328.83 356.792L371.83 381.612L374.32 381.382V384.522C374.32 385.432 373.72 386.342 372.52 387.042L310.04 423.112C307.64 424.492 303.72 424.492 301.33 423.112L257.64 397.892C256.44 397.202 255.84 396.292 255.84 395.382V392.242L259.27 391.932L259.28 391.922Z" fill="#925FFF"/>
<path d="M320.13 353.652C322.53 352.272 326.45 352.272 328.84 353.652L372.53 378.872C373.73 379.562 374.33 380.472 374.33 381.392C374.33 382.312 373.73 383.212 372.53 383.912L310.05 419.982C307.65 421.362 303.73 421.362 301.34 419.982L257.65 394.762C256.45 394.072 255.85 393.162 255.85 392.242C255.85 391.322 256.45 390.422 257.65 389.722L320.13 353.652Z" fill="url(#paint6_linear_27_1102)"/>
<path d="M241.23 328.682C238.83 330.062 237.46 333.382 238.18 336.052L251.99 387.382C252.71 390.052 255.26 391.112 257.65 389.722L320.13 353.652C322.53 352.272 323.9 348.952 323.18 346.282L309.37 294.952C308.65 292.282 306.1 291.222 303.71 292.612L241.23 328.682V328.682Z" fill="url(#paint7_linear_27_1102)"/>
<path d="M241.23 328.682C238.83 330.062 237.46 333.382 238.18 336.052L251.99 387.382C252.71 390.052 255.26 391.112 257.65 389.722L320.13 353.652C322.53 352.272 323.9 348.952 323.18 346.282L309.37 294.952C308.65 292.282 306.1 291.222 303.71 292.612L241.23 328.682V328.682Z" fill="url(#paint8_linear_27_1102)"/>
<path d="M315 341.763C312.368 343.298 306.725 338.068 304.317 338.962C302.201 339.745 303.826 342.657 301.048 343.717C298.536 344.674 293.186 333.566 289.952 335.156C286.718 336.746 291.139 352.942 287.741 354.746C284.344 356.542 279.002 348.156 276 349.857" stroke="white" stroke-linecap="round" stroke-linejoin="round"/>
<path d="M272 336.86L280.34 367.84L316.47 346.98L308.13 316L272 336.86Z" stroke="#925FFF" stroke-linecap="round" stroke-linejoin="round"/>
<path d="M262 372.39L263.41 377.66L274.49 371.27L273.07 366L262 372.39Z" fill="#925FFF"/>
<path d="M265.904 339L249 348.759" stroke="white" stroke-linecap="round" stroke-linejoin="round"/>
<path d="M266.603 342.511L249.699 352.27" stroke="white" stroke-linecap="round" stroke-linejoin="round"/>
<path d="M267.31 346.013L259.631 350.445" stroke="white" stroke-linecap="round" stroke-linejoin="round"/>
<path d="M341.42 372.592L318.76 359.512L267.8 388.932L290.46 402.012L341.42 372.592Z" fill="#C7BCE5"/>
<path d="M349.94 392.692L325.28 406.932" stroke="#BCC0E5" stroke-linecap="round" stroke-linejoin="round"/>
<path d="M306.27 299.492L242.81 336.132" stroke="#925FFF" stroke-linecap="round" stroke-linejoin="round"/>
<path d="M283.08 446.722V443.502C283.08 432.872 269.37 434.782 269.37 425.812V416.222C269.37 414.542 270.56 412.472 272.02 411.632L276.72 408.922" stroke="white" stroke-linecap="round" stroke-linejoin="round"/>
<path d="M276.72 408.902L278.48 409.922L274.92 407.872" stroke="white" stroke-linecap="round" stroke-linejoin="round"/>
<defs>
<linearGradient id="paint0_linear_27_1102" x1="121.5" y1="270" x2="269" y2="202.5" gradientUnits="userSpaceOnUse">
<stop stop-color="#040919"/>
<stop offset="0.05" stop-color="#080C28"/>
<stop offset="1" stop-color="#6131E8"/>
</linearGradient>
<linearGradient id="paint1_linear_27_1102" x1="0.47998" y1="161.09" x2="317.02" y2="161.09" gradientUnits="userSpaceOnUse">
<stop stop-color="#D0D3F5"/>
<stop offset="0.06" stop-color="#D0D3F5" stop-opacity="0.78"/>
<stop offset="0.14" stop-color="#D0D3F5" stop-opacity="0.55"/>
<stop offset="0.21" stop-color="#D0D3F5" stop-opacity="0.35"/>
<stop offset="0.28" stop-color="#D0D3F5" stop-opacity="0.2"/>
<stop offset="0.35" stop-color="#D0D3F5" stop-opacity="0.09"/>
<stop offset="0.4" stop-color="#D0D3F5" stop-opacity="0.02"/>
<stop offset="0.45" stop-color="#D0D3F5" stop-opacity="0"/>
</linearGradient>
<linearGradient id="paint2_linear_27_1102" x1="334.79" y1="348.21" x2="486.07" y2="348.21" gradientUnits="userSpaceOnUse">
<stop stop-color="#D0D3F5"/>
<stop offset="0.06" stop-color="#D0D3F5" stop-opacity="0.78"/>
<stop offset="0.14" stop-color="#D0D3F5" stop-opacity="0.55"/>
<stop offset="0.21" stop-color="#D0D3F5" stop-opacity="0.35"/>
<stop offset="0.28" stop-color="#D0D3F5" stop-opacity="0.2"/>
<stop offset="0.35" stop-color="#D0D3F5" stop-opacity="0.09"/>
<stop offset="0.4" stop-color="#D0D3F5" stop-opacity="0.02"/>
<stop offset="0.45" stop-color="#D0D3F5" stop-opacity="0"/>
</linearGradient>
<linearGradient id="paint3_linear_27_1102" x1="374.01" y1="300.38" x2="446.86" y2="300.38" gradientUnits="userSpaceOnUse">
<stop stop-color="#D0D3F5"/>
<stop offset="0.15" stop-color="#D0D3F5" stop-opacity="0.69"/>
<stop offset="0.34" stop-color="#D0D3F5" stop-opacity="0.32"/>
<stop offset="0.48" stop-color="#D0D3F5" stop-opacity="0.09"/>
<stop offset="0.54" stop-color="#D0D3F5" stop-opacity="0"/>
</linearGradient>
<linearGradient id="paint4_linear_27_1102" x1="-946.5" y1="289.86" x2="-945.5" y2="289.86" gradientUnits="userSpaceOnUse">
<stop stop-color="#D0D3F5"/>
<stop offset="0.15" stop-color="#D0D3F5" stop-opacity="0.69"/>
<stop offset="0.34" stop-color="#D0D3F5" stop-opacity="0.32"/>
<stop offset="0.48" stop-color="#D0D3F5" stop-opacity="0.09"/>
<stop offset="0.54" stop-color="#D0D3F5" stop-opacity="0"/>
</linearGradient>
<linearGradient id="paint5_linear_27_1102" x1="462.51" y1="389.492" x2="270.01" y2="433.992" gradientUnits="userSpaceOnUse">
<stop stop-color="#040919"/>
<stop offset="0.05" stop-color="#080C28"/>
<stop offset="1" stop-color="#5631E8"/>
</linearGradient>
<linearGradient id="paint6_linear_27_1102" x1="369" y1="387" x2="256" y2="387" gradientUnits="userSpaceOnUse">
<stop stop-color="#D5D0F5"/>
<stop offset="0.17" stop-color="#EDE9FA"/>
<stop offset="0.32" stop-color="#F9F9FD"/>
<stop offset="0.45" stop-color="white"/>
</linearGradient>
<linearGradient id="paint7_linear_27_1102" x1="287.63" y1="329.092" x2="282.56" y2="337.902" gradientUnits="userSpaceOnUse">
<stop stop-color="#040919"/>
<stop offset="0.05" stop-color="#080C28"/>
<stop offset="0.24" stop-color="#1A1762"/>
<stop offset="0.42" stop-color="#282092"/>
<stop offset="0.59" stop-color="#3427B7"/>
<stop offset="0.75" stop-color="#3C2CD2"/>
<stop offset="0.89" stop-color="#412FE2"/>
<stop offset="1" stop-color="#4331E8"/>
</linearGradient>
<linearGradient id="paint8_linear_27_1102" x1="281" y1="292" x2="230.152" y2="400.973" gradientUnits="userSpaceOnUse">
<stop stop-color="#040919"/>
<stop offset="0.05" stop-color="#080C28"/>
<stop offset="0.196707" stop-color="#1A1762"/>
<stop offset="1" stop-color="#6C31E8"/>
</linearGradient>
</defs>
</svg>
